<svg xmlns="http://www.w3.org/2000/svg" viewBox="0 0 120 120" fill="none">
  <rect width="120" height="120" rx="24" fill="#1F1F3D"/>
  <path d="M60 30C43.43 30 30 43.43 30 60c0 16.57 13.43 30 30 30 7.18 0 13.77-2.52 18.94-6.73L66.5 71.5C64.52 72.47 62.32 73 60 73c-7.18 0-13-5.82-13-13s5.82-13 13-13 13 5.82 13 13v3c0 2.21-1.79 4-4 4s-4-1.79-4-4v-3c0-2.76-2.24-5-5-5s-5 2.24-5 5 2.24 5 5 5c1.88 0 3.51-1.04 4.36-2.57C65.64 66.45 67.65 68 70 68c4.42 0 8-3.58 8-8v-3c0-9.94-8.06-18-18-18z" fill="white"/>
</svg>