<svg xmlns="http://www.w3.org/2000/svg" viewBox="0 0 120 120" fill="none">
  <rect width="120" height="120" rx="24" fill="#96BF48"/>
  <path d="M76.5 28.5c-.2 0-.4.1-.5.3-.1.1-2.2-0.5-2.2-0.5s-1.5-1.5-1.7-1.6c-.2-.2-.5-.1-.6-.1l-.9.3c-.5-1.5-1.4-2.8-3-2.8h-.3c-.5-.6-.9-.8-1.4-.8-3.3 0-4.9 4.1-5.4 6.2l-4.4 1.4c-1.4.4-1.4.5-1.6 1.8L52 52l18.3 3.2 9.9-2.1c0 0-2.5-23.8-2.7-24.6zM67.5 30.8l-3.2 1c.3-1.3.9-2.5 1.7-3.3.3.5.9 1.2 1.5 2.3zM65 27c.5 0 .9.2 1.3.5-1.6 1.5-2.3 3.7-2.6 5l-2.7.8C61.7 30.7 63 27 65 27zM66 54.7L64.3 50c0 0 1-.5 2.7-.5 1.7 0 1.8 1.1 1.8 1.4-.1 1.4-2.8 3.8-2.8 3.8z" fill="white"/>
  <path d="M75.9 28.9c-.1 0-.2 0-.4.1-.1 0-.5.1-.5.1s-1.5-1.5-1.7-1.6c-.1-.1-.2-.1-.3-.1v27.8l9.8-2.1s-2.4-23.6-2.6-24.5c-.2-.8-.5-.9-.5-.9-.1 0-.3.1-.4.1L75.9 28.9z" fill="white" opacity="0.6"/>
  <path d="M65 27c-.1 0-.2 0-.3 0 0 0-.1.1-.2.2-.2.3-.6.9-.9 1.6.5-1 1.2-1.5 1.7-1.7-.1-.1-.2-.1-.3-.1z" fill="white" opacity="0.4"/>
  <path d="M52 76l1.2-5.3s-1.3-.7-2.9-.7c-2.4 0-2.5 1.5-2.5 1.9 0 2 2.7 2.8 2.7 6 0 3-1.9 4.9-4.4 4.9-3 0-4.6-1.9-4.6-1.9l.8-2.7s1.6 1.4 2.9 1.4c.9 0 1.2-.7 1.2-1.2 0-2.1-2.2-2.8-2.2-5.7 0-2.9 2.1-5.8 6.2-5.8 1.6 0 2.4.5 2.4.5L52 76z" fill="white"/>
</svg>