<svg width="500" height="500" viewBox="0 0 500 500" fill="none" xmlns="http://www.w3.org/2000/svg">
<rect width="500" height="500" rx="250" fill="black"/>
<mask id="mask0_210_2" style="mask-type:luminance" maskUnits="userSpaceOnUse" x="96" y="113" width="308" height="274">
<path d="M96 113.5H404V386.5H96V113.5Z" fill="white"/>
</mask>
<g mask="url(#mask0_210_2)">
<path d="M177.391 115.276C168.115 118.813 162.021 126.76 159.646 138.359C158.484 144.214 158.776 156.917 160.281 163.875C161.906 171.417 165.62 181.563 169.62 189.51C173.276 196.818 179.594 207.141 182.266 210.214C183.422 211.604 183.422 211.604 182.323 211.198C180.057 210.385 160.401 210.099 153.323 210.792C123.516 213.693 102.172 226.219 97.5885 243.443C95.5625 251.219 97.4739 259.917 102.812 267.109C107.568 273.427 121.833 286.422 129.833 291.583C137.318 296.396 138.766 297.266 139.635 297.266C140.099 297.266 141.089 297.786 141.781 298.484C142.479 299.12 144.161 299.818 145.437 299.99C146.943 300.224 148.047 300.745 148.453 301.38C148.917 302.25 149.672 302.484 152.453 302.484C155.297 302.484 155.818 302.656 155.526 303.354C155.354 303.875 155.646 304.63 156.281 305.036C157.266 305.792 157.266 305.906 155.99 307.417C155.12 308.516 154.714 309.849 154.776 311.417C154.776 312.75 154.542 316.115 154.25 319.016C153.266 328.932 154.833 344.938 157.849 356.422C161.328 369.646 163.766 374.63 169.042 379.563C174.026 384.26 177.51 385.536 185.802 385.88C193.516 386.172 197.458 385.302 204.937 381.646C221.005 373.818 236.661 356.073 247.568 333.339L250.12 327.943L252.786 333.339C256.5 340.76 258.76 344.88 262.411 350.391C274.13 368.193 290.078 381.417 304.229 385.068C309.562 386.464 318.609 386.286 322.786 384.781C331.198 381.646 336.417 375.734 339.719 365.698C342.099 358.51 344.01 350.797 345.057 344.24C346.042 337.979 346.625 324.234 346.099 319.016C345.812 316.115 345.578 312.75 345.578 311.417C345.635 309.849 345.229 308.516 344.359 307.417C343.083 305.906 343.083 305.792 344.073 305.036C344.708 304.63 345 303.875 344.823 303.354C344.536 302.656 345.057 302.484 347.901 302.484C350.682 302.484 351.437 302.25 351.901 301.38C352.307 300.745 353.406 300.224 354.917 299.99C356.193 299.818 357.875 299.12 358.568 298.484C359.266 297.786 360.25 297.266 360.714 297.266C362.687 297.266 377.594 287 383.505 281.604C398.589 267.802 403.573 259.974 403.573 250C403.573 230.104 381.016 214.214 347.958 210.911C341.172 210.214 328.24 210.156 321.974 210.792C319.656 211.026 317.74 211.083 317.74 211.026C317.74 210.911 318.901 209.229 320.292 207.198C329.396 194.208 336.068 179.88 339.547 166.078C341.578 157.958 342.099 145.375 340.708 138.302C338.62 127.745 332.068 118.755 324.297 115.682C318.786 113.536 310.26 113.479 301.677 115.448C294.021 117.245 290.135 118.464 282.943 121.25C276.969 123.625 265.776 129.25 264.151 130.76C263.458 131.339 262.354 132.036 261.661 132.208C260.964 132.443 259.745 133.37 258.932 134.354C258.12 135.281 257.078 136.036 256.557 136.036C255.224 136.036 252.901 138.703 252.437 140.849C252.208 141.896 251.917 142.359 251.802 141.953C251.625 141.604 250.932 141.255 250.177 141.255C249.422 141.255 248.724 141.604 248.552 141.953C248.437 142.359 248.146 141.896 247.917 140.849C247.453 138.703 245.13 136.036 243.797 136.036C243.276 136.036 242.229 135.281 241.417 134.354C240.609 133.37 239.391 132.443 238.693 132.208C237.995 132.036 236.896 131.339 236.255 130.76C234.865 129.484 223.443 123.51 219.437 121.943C204.766 116.26 195.255 114 186.495 114.057C181.974 114.057 179.828 114.349 177.391 115.276ZM186.094 116.203C181.917 117.771 180.12 118.927 177.333 121.943C168.458 131.396 166.719 150.13 172.75 170.427C176.641 183.536 182.146 194.266 193.745 211.49L194.792 212.938L189.745 212.188C186.964 211.724 184.641 211.318 184.583 211.26C184.526 211.198 182.552 208.24 180.177 204.76C161.328 176.865 155.062 148.042 163.995 129.948C168.578 120.667 176.521 115.161 185.224 115.219L188.703 115.276L186.094 116.203ZM324.12 117.365C332.182 121.193 337.109 128.151 339.49 139.172C340.708 144.677 340.417 156.276 338.911 163.297C336.359 174.781 330.151 189.161 322.552 201.109C316.177 211.141 315.943 211.375 310.375 212.245C307.13 212.708 305.734 212.766 305.969 212.359C306.198 212.01 307.708 209.75 309.333 207.37C318.901 193.51 325.453 179.417 329.109 164.802C331.078 156.917 331.661 144.333 330.266 137.255C328.297 126.641 322.615 119.161 314.203 116.089L311.651 115.099L316 115.333C319.422 115.505 321.219 115.974 324.12 117.365ZM197.109 116.552C197.109 116.724 195.776 117.245 194.208 117.771C187.771 119.917 182.437 127.047 180.526 136.036C179.25 142.125 179.656 155.755 181.396 163.297C184.583 177.156 191.193 191.828 200.88 206.5C205.635 213.635 206.62 215.552 205.635 215.26C204.937 215.083 202.734 214.62 200.766 214.214C196.823 213.521 197.286 213.984 191.135 204.995C182.203 191.948 174.724 175.245 171.88 162.135C170.432 155.469 170.141 143.057 171.245 137.833C173.448 127.51 179.656 119.625 187.427 117.13C189.687 116.438 197.109 116.031 197.109 116.552ZM315.536 118.234C335.776 128.151 334.5 164.396 312.635 199.656C310.432 203.141 307.417 207.719 305.854 209.807C303.125 213.406 302.896 213.578 299.531 214.276C297.557 214.677 295.354 215.146 294.599 215.318C293.323 215.667 293.443 215.375 295.875 211.953C308.229 194.901 316.812 175.823 319.771 159.005C320.875 152.568 320.875 141.083 319.771 135.922C317.917 127.104 312.521 119.859 306.141 117.771C304.578 117.245 303.24 116.667 303.24 116.495C303.24 116.318 305.271 116.26 307.823 116.438C311.187 116.609 313.219 117.073 315.536 118.234ZM202.328 118.641C203.318 119.219 203.375 119.161 199.953 121.135C189.516 127.104 186.901 147.115 193.516 169.964C197.573 183.943 204.068 196.99 214.859 212.708C217.234 216.188 218.917 218.969 218.682 218.969C218.453 218.969 216.307 218.333 213.927 217.635C209.698 216.302 209.464 216.13 206.562 212.245C195.547 197.63 185.745 177.156 182.323 161.557C180.812 154.771 180.526 142.359 181.682 137.026C183.828 127.51 189.109 120.667 195.953 118.583C198.036 118 201.286 118 202.328 118.641ZM307.245 119.797C312.698 122.526 316.812 128.786 318.667 137.026C320.062 143.286 319.536 155.641 317.51 163.583C313.333 180.406 303.474 200.125 292.281 214.276C290.833 216.073 289.786 216.651 285.609 217.927L280.625 219.375L282.656 216.708C291.875 204.646 301.328 187.073 305.505 174.313C313.682 149.203 311.594 127.51 300.401 121.135C296.979 119.161 297.036 119.276 298.021 118.583C299.297 117.714 304.516 118.406 307.245 119.797ZM207.609 121.307L209.349 122.177L206.448 125.365C203.083 129.021 201.578 132.734 200.531 139.516C198.036 156.859 205.229 181.854 219.615 205.75C222.224 209.984 225.703 215.432 227.5 217.813C229.24 220.188 230.458 222.333 230.286 222.568C230.052 222.797 228.198 222.391 226.109 221.641C222.687 220.422 222.047 219.901 219.031 216.073C208.536 202.5 198.385 182.781 194.328 167.818C190.036 152.276 190.094 138.302 194.5 129.656C196.474 125.771 198.969 123.047 201.922 121.599C204.823 120.146 205.344 120.089 207.609 121.307ZM298.37 121.599C310.146 127.281 312.521 148.625 304.229 173.734C299.995 186.495 289.266 206.156 280.448 217.229C278.245 219.958 277.375 220.594 274.01 221.813C271.865 222.568 269.953 223.031 269.781 222.859C269.604 222.682 271.052 220.307 273.026 217.578C284.802 200.995 293.323 183.479 297.385 167.469C302.37 148.099 300.75 131.458 293.385 124.786C292.109 123.625 291.062 122.583 291.062 122.411C291.062 122.005 294.193 120.438 295.062 120.38C295.531 120.38 297.036 120.901 298.37 121.599ZM213.927 125.484L215.901 127.167L214.625 128.729C209.292 135.573 208.766 151.698 213.349 169.557C216.307 181.276 224.021 198.906 230.979 209.807L234.172 214.911L232.833 217.87L231.443 220.828L228.948 217.406C219.323 204.417 209.464 185.104 205.286 170.953C202.448 161.323 201.516 155.641 201.516 147.057C201.458 136.385 203.26 130.411 207.896 125.948C210.505 123.453 211.375 123.396 213.927 125.484ZM292.453 126.005C297.208 130.76 298.891 136.385 298.833 147.349C298.719 161.557 295.125 174.432 286.135 192.583C281.495 202.036 274.302 213.927 270.182 218.969C269.026 220.422 269.026 220.422 268.271 219.26C266.068 215.667 266.125 215.375 268.792 210.969C278.245 195.427 285.38 178.198 288.453 163.583C291.411 149.203 290.193 134.01 285.552 128.615L284.219 127.104L286.365 125.484C287.526 124.615 288.859 123.859 289.38 123.859C289.901 123.859 291.297 124.844 292.453 126.005ZM221.062 131.458L222.687 132.906L221.703 135.516C220.427 138.938 219.901 152.854 220.891 159.411C222.63 171.474 227.734 187.016 234.172 200.005L237.651 206.906L236.49 209.922C235.792 211.547 235.214 213 235.099 213.115C234.344 213.807 224.427 195.656 220.599 186.495C210.682 163.063 208.651 140.505 215.495 130.12C217.177 127.63 216.536 127.453 221.062 131.458ZM285.901 132.094C287.932 136.036 288.802 140.677 288.802 147.635C288.802 159.99 285.672 172.693 278.766 188.698C275.172 197.047 266.417 213.172 265.547 213.172C265.312 213.172 264.615 211.781 263.922 210.099L262.646 207.026L264.328 203.891C271.172 191.25 277.667 172.052 279.521 159.411C280.448 152.854 279.927 138.88 278.651 135.516L277.724 132.906L280.448 130.411C283.583 127.63 283.583 127.63 285.901 132.094ZM229.068 132.964C229.818 133.891 229.76 133.948 228.891 133.198C227.906 132.443 227.615 131.979 228.078 131.979C228.198 131.979 228.661 132.443 229.068 132.964ZM231.385 132.964C232.141 133.891 232.083 133.948 231.214 133.198C230.224 132.443 229.937 131.979 230.401 131.979C230.516 131.979 230.979 132.443 231.385 132.964ZM270.182 132.208C270.182 132.328 269.719 132.792 269.198 133.198C268.271 133.948 268.214 133.891 268.969 132.964C269.719 132.036 270.182 131.745 270.182 132.208ZM238.229 135.922C239.214 137.49 240.026 138.995 240.026 139.229C240.026 139.516 239.271 138.589 238.401 137.141C235.969 133.313 235.849 133.135 236.141 133.135C236.318 133.135 237.245 134.411 238.229 135.922ZM263.167 135.281C261.135 138.703 260.328 139.807 260.328 139.286C260.328 138.646 263.807 133.135 264.214 133.135C264.328 133.135 263.865 134.125 263.167 135.281ZM228.427 139.286C230.052 141.083 230.052 141.198 229.76 146.823C229.125 159.292 232.198 173.443 240.026 194.323L241.302 197.802L239.911 201.573L238.464 205.344L235.734 199.891C226.687 181.969 221.469 163.24 221.469 148.797C221.469 142.823 222.396 136.677 223.557 134.76C223.786 134.411 224.599 134.938 225.354 135.807C226.109 136.734 227.5 138.302 228.427 139.286ZM235.969 136.094C236.839 137.719 236.255 137.427 235.099 135.688C234.578 134.818 234.401 134.354 234.75 134.531C235.099 134.76 235.677 135.458 235.969 136.094ZM264.094 137.547C261.719 141.432 260.906 142.359 262.354 139.516C263.458 137.37 265.49 134.297 265.833 134.297C265.953 134.297 265.141 135.75 264.094 137.547ZM277.958 138.646C279.292 143.521 279.172 154.073 277.724 161.906C275.635 173.443 270.708 187.885 264.615 199.891L261.891 205.344L260.5 201.573C259.745 199.542 259.224 197.453 259.396 196.932C259.516 196.469 260.964 192.469 262.589 188.057C268.271 172.75 271.172 157.901 270.589 146.885C270.302 141.318 270.302 141.141 271.865 139.344C272.734 138.302 274.073 136.792 274.823 135.865C275.578 134.995 276.391 134.474 276.62 134.703C276.911 134.995 277.49 136.734 277.958 138.646ZM240.896 136.036C241.479 136.677 241.708 137.198 241.417 137.198C241.13 137.198 240.547 136.677 240.141 136.036C239.74 135.401 239.505 134.88 239.62 134.88C239.74 134.88 240.318 135.401 240.896 136.036ZM260.208 136.036C259.802 136.62 259.396 137.026 259.224 136.906C258.99 136.677 260.266 134.88 260.672 134.88C260.792 134.88 260.615 135.401 260.208 136.036ZM237.708 138.938C238.057 139.573 238.172 140.099 238.057 140.099C237.88 140.099 237.474 139.573 237.125 138.938C236.781 138.302 236.661 137.776 236.781 137.776C236.953 137.776 237.359 138.302 237.708 138.938ZM246.927 142.474C247.74 144.911 247.917 146.359 247.568 147.229C247.104 148.448 247.047 148.448 246.984 147.349C246.984 146.708 246.292 144.333 245.536 142.125C243.854 137.37 243.854 137.427 244.901 138.302C245.365 138.703 246.292 140.563 246.927 142.474ZM254.818 142.359C254.005 144.677 253.365 147 253.307 147.521C253.307 148.276 253.193 148.276 252.844 147.349C252.323 146.073 253.542 141.198 254.932 139.052C256.323 136.792 256.323 137.896 254.818 142.359ZM243.682 141.198C244.781 143.865 246.406 150.073 246.349 151.177C246.349 151.641 245.828 150.422 245.245 148.505C244.667 146.594 243.682 143.635 242.984 141.953C242.349 140.328 242 138.938 242.286 138.938C242.578 138.938 243.219 139.922 243.682 141.198ZM257.307 141.953C256.672 143.635 255.63 146.594 255.104 148.505C253.771 152.797 253.599 151.698 254.875 146.943C255.974 142.531 257.427 138.938 258.005 138.938C258.24 138.938 257.948 140.328 257.307 141.953ZM242.927 145.839C242.87 146.594 241.245 143.229 241.245 142.417C241.245 141.953 241.594 142.417 242.057 143.521C242.521 144.563 242.927 145.609 242.927 145.839ZM258.297 145.026C257.714 146.479 257.135 147.578 257.021 147.464C256.906 147.349 257.307 146.01 257.833 144.563C258.354 143.115 258.932 142.01 259.052 142.125C259.167 142.245 258.818 143.521 258.297 145.026ZM250.583 149.552L250.234 154.307L249.771 149.958C249.536 147.578 249.479 144.797 249.714 143.865C250.406 140.448 251.047 144.448 250.583 149.552ZM269.375 152.276C268.792 163.297 265.604 176.578 260.151 190.844L258.354 195.484L256.729 190.266L255.161 185.042L256.557 180.406C258.469 174.141 260.151 165.906 260.906 159.005C261.542 153.323 261.599 153.26 265.141 148.156C268.385 143.578 268.792 143.229 269.255 144.333C269.49 145.026 269.547 148.625 269.375 152.276ZM237.01 150.771C238.464 153.146 238.927 154.828 239.448 159.234C240.26 166.078 241.885 173.969 243.74 180.344L245.13 185.219L243.562 190.323L241.943 195.484L240.083 190.672C234.344 175.708 230.75 159.76 230.75 149.031C230.75 143.464 231.156 142.938 233.417 145.609C234.401 146.823 236.083 149.146 237.01 150.771ZM246.812 154.13C246.641 154.536 246.521 154.25 246.521 153.438C246.521 152.625 246.641 152.333 246.812 152.682C246.927 153.089 246.927 153.786 246.812 154.13ZM253.771 154.13C253.599 154.536 253.484 154.25 253.484 153.438C253.484 152.625 253.599 152.333 253.771 152.682C253.891 153.089 253.891 153.786 253.771 154.13ZM246.406 168.458C247.047 170.49 247.568 173.62 247.51 175.417C247.453 178.724 246.292 183.073 245.708 182.089C244.609 180.344 240.609 161.266 240.609 158.078C240.609 155.99 244.901 163.646 246.406 168.458ZM258.875 164.339C257.833 170.604 255.224 181.276 254.526 182.026C253.948 182.724 252.786 177.854 252.786 174.604C252.786 171.297 254.526 165.964 257.307 160.802C259.859 156.047 260.208 156.74 258.875 164.339ZM245.073 198.208C244.901 198.672 244.724 198.5 244.724 197.859C244.667 197.224 244.839 196.875 245.016 197.109C245.187 197.281 245.245 197.802 245.073 198.208ZM250.292 206.328C250.177 207.719 250.062 206.62 250.062 203.891C250.062 201.167 250.177 200.063 250.292 201.401C250.406 202.792 250.406 204.995 250.292 206.328ZM242.172 201.688C242 202.151 241.823 201.979 241.823 201.339C241.766 200.703 241.943 200.354 242.115 200.589C242.286 200.76 242.349 201.281 242.172 201.688ZM258.411 201.688C258.24 202.151 258.062 201.979 258.062 201.339C258.005 200.703 258.182 200.354 258.354 200.589C258.526 200.76 258.583 201.281 258.411 201.688ZM246.234 202.849C246.057 203.313 245.885 203.141 245.885 202.5C245.828 201.865 246 201.516 246.177 201.745C246.349 201.922 246.406 202.443 246.234 202.849ZM254.354 202.849C254.177 203.313 254.005 203.141 254.005 202.5C253.948 201.865 254.12 201.516 254.292 201.745C254.469 201.922 254.526 202.443 254.354 202.849ZM247.974 206.906C247.797 207.37 247.625 207.198 247.625 206.563C247.568 205.922 247.74 205.573 247.917 205.807C248.089 205.979 248.146 206.5 247.974 206.906ZM238.286 212.068C237.302 216.823 237.187 217.115 236.432 215.896C236.026 215.083 236.198 214.042 237.245 211.724C237.937 210.042 238.635 208.708 238.75 208.766C238.807 208.88 238.635 210.328 238.286 212.068ZM264.151 215.318C263.573 216.823 262.76 216.016 262.411 213.578C262.182 212.245 261.891 210.505 261.719 209.693C261.599 208.88 262.125 209.693 262.937 211.375C263.745 213.115 264.271 214.911 264.151 215.318ZM182.323 212.359C183.599 212.651 184.875 213.807 187.135 216.708L190.208 220.771L185.396 220.307C177.276 219.552 159.703 219.839 152.453 220.885C126.354 224.656 107.682 235.906 103.042 250.521C102.172 253.188 101.937 255.219 102.115 258.813C102.344 263.104 102.286 263.453 101.536 262.354C100.083 260.266 98.5208 255.568 98.1719 252.089C96.8958 240.198 106.698 227.208 122.411 219.901C130.302 216.245 141.901 213.229 152.453 212.068C157.385 211.49 179.016 211.724 182.323 212.359ZM246.406 215.026C246.349 217.813 246.234 218.448 245.771 217.635C245.245 216.766 245.594 211.432 246.177 211.432C246.292 211.432 246.406 213.057 246.406 215.026ZM254.641 217.464C254.177 218.391 254.005 217.87 254.062 214.911V211.141L254.641 213.693C254.99 215.375 254.99 216.651 254.641 217.464ZM353.406 212.766C371.156 215.667 384.203 221.464 393.135 230.51C402.01 239.385 404.385 249.073 400.328 259.219C399.516 261.307 398.646 263.161 398.411 263.339C398.182 263.453 398.125 261.422 398.24 258.813C398.76 248.609 393.307 239.792 382 232.37C367.734 223.031 341.635 217.984 318.089 220.073C313.969 220.422 310.552 220.651 310.432 220.536C310.318 220.422 315.365 213.693 316.292 212.708C316.349 212.594 318.609 212.302 321.281 212.01C328.062 211.318 347.146 211.781 353.406 212.766ZM240.609 214.74C240.026 217.635 239.448 218.969 238.75 218.969C238.229 218.969 238.344 218.333 239.562 214.214C240.375 211.432 241.187 211.896 240.609 214.74ZM262.005 218.219C262.068 218.625 261.833 218.969 261.542 218.969C260.615 218.969 258.875 213.115 259.573 212.359C259.979 211.953 261.948 216.651 262.005 218.219ZM192.354 213.807C196.182 214.505 196.24 214.505 199.255 218.333C200.88 220.422 202.156 222.219 202.042 222.333C201.984 222.453 199.839 222.219 197.286 221.813L192.76 221.115L189.745 217.464C188.062 215.49 186.672 213.693 186.672 213.521C186.672 213 188.005 213.115 192.354 213.807ZM248.786 214.74C248.323 215.609 248.203 215.609 248.146 214.854C248.146 213.87 248.724 213 249.193 213.406C249.307 213.578 249.13 214.156 248.786 214.74ZM252.208 214.797C252.208 215.667 252.089 215.667 251.625 214.911C250.87 213.75 250.87 213 251.625 213.464C251.974 213.635 252.208 214.276 252.208 214.797ZM311.823 216.13C310.49 217.755 308.927 219.552 308.464 220.13C307.88 220.771 306.026 221.406 303.068 221.87C300.573 222.219 298.427 222.453 298.312 222.333C298.198 222.219 299.474 220.422 301.156 218.391C303.88 214.911 304.401 214.563 307.302 213.927C309.042 213.578 311.359 213.229 312.406 213.229L314.375 213.172L311.823 216.13ZM204.187 216.359C208.13 217.229 208.828 217.578 210.219 219.438C211.089 220.651 212.594 222.453 213.521 223.438C214.51 224.479 215.089 225.349 214.74 225.349C213.349 225.292 205.057 223.089 204.651 222.682C202.156 219.958 198.214 214.797 198.906 215.026C199.37 215.203 201.75 215.781 204.187 216.359ZM300.63 216.766C295.531 222.917 295.24 223.089 290.427 224.25C287.875 224.828 285.609 225.349 285.495 225.349C285.323 225.349 286.656 223.609 288.51 221.406C291.76 217.635 291.932 217.464 296.516 216.245C299.125 215.609 301.443 214.969 301.677 214.969C301.969 214.911 301.5 215.781 300.63 216.766ZM242.87 220.422C242.464 222.161 241.943 223.438 241.594 223.203C241.073 222.917 241.417 218.161 242.172 216.302C242.464 215.432 242.578 215.432 243.042 216.302C243.391 216.885 243.333 218.448 242.87 220.422ZM258.932 219.958C259.453 223.958 258.354 224.365 257.484 220.479C256.786 217.349 257.135 214.563 258.062 216.188C258.297 216.651 258.703 218.333 258.932 219.958ZM235.911 217.693C236.318 218.448 236.141 219.438 235.328 221.292C234.286 223.552 234.109 223.729 233.302 222.917C232.49 222.161 232.547 221.755 233.703 219.375C234.458 217.87 235.099 216.651 235.214 216.651C235.271 216.651 235.62 217.115 235.911 217.693ZM267.052 223.146L266.182 224.365L265.547 222.859C265.255 221.984 264.677 220.594 264.385 219.781C263.922 218.682 263.979 218.042 264.5 217.406C265.083 216.708 265.427 217 266.531 219.203C267.807 221.641 267.807 222.047 267.052 223.146ZM249.307 220.245L249.25 223.323L248.38 221.641C247.625 220.245 247.568 219.724 248.203 218.625C248.609 217.87 249.016 217.229 249.13 217.229C249.25 217.229 249.307 218.625 249.307 220.245ZM252.031 221.698C251.104 222.625 251.047 222.51 251.104 219.839V216.943L252.089 218.854C252.958 220.594 252.958 220.828 252.031 221.698ZM216.656 219.839C220.948 221.177 221.411 221.521 224.193 224.885C225.818 226.917 227.094 228.599 226.979 228.714C226.922 228.828 224.833 228.307 222.339 227.552C218.161 226.339 217.641 225.99 214.74 222.682C211.844 219.438 211.203 218.391 211.844 218.391C212.016 218.391 214.161 219.031 216.656 219.839ZM288.745 218.74C288.745 218.911 287.292 220.714 285.552 222.682C282.187 226.453 282.594 226.276 274.01 228.714C273.198 228.948 273.839 227.844 276.042 225.177C278.943 221.583 279.464 221.177 283.526 219.901C288.281 218.333 288.745 218.219 288.745 218.74ZM255.51 220.828C255.339 221.234 255.224 220.943 255.224 220.13C255.224 219.318 255.339 219.031 255.51 219.375C255.63 219.781 255.63 220.479 255.51 220.828ZM245.073 220.828C244.901 221.292 244.724 221.115 244.724 220.479C244.667 219.839 244.839 219.495 245.016 219.724C245.187 219.901 245.245 220.422 245.073 220.828ZM182.844 221.349L191.021 221.927L195.078 225.99L199.141 230.047L194.5 229.583C186.031 228.714 162.661 229.12 156.224 230.224C137.953 233.297 124.208 239.214 115.625 247.677C109.307 253.828 106.521 260.901 107.74 267.396C108.031 269.021 108.203 270.411 108.089 270.469C107.625 270.938 104.318 264.323 103.682 261.714C101.01 250.635 109.536 238.052 124.906 230.396C140.276 222.74 160.344 219.609 182.844 221.349ZM340.359 221.349C353.641 222.568 366.281 225.813 375.448 230.453C393.021 239.271 400.964 253.365 395.281 265.542C394.469 267.224 393.427 269.078 392.901 269.719C391.917 270.875 391.917 270.818 392.323 269.427C393.135 266.646 392.729 260.495 391.453 257.25C388.031 248.203 375.969 239.036 361.526 234.396C347.724 229.99 335.896 228.542 318.323 229.063C311.479 229.297 304.807 229.583 303.531 229.76L301.214 230.167L304.693 226.453C306.604 224.422 308.406 222.568 308.75 222.333C310.724 221.057 330.615 220.422 340.359 221.349ZM200.302 223.609C204.302 224.25 204.417 224.365 207.953 228.193L211.552 232.135L206.505 231.208C203.724 230.688 201.172 230.104 200.823 229.875C200.417 229.583 198.734 227.786 197.052 225.875C194.964 223.438 194.328 222.391 195.078 222.625C195.719 222.797 198.099 223.26 200.302 223.609ZM227.094 223.438C228.312 224.016 229.411 224.479 229.531 224.599C229.589 224.656 229.354 225.234 228.891 225.875L228.021 227.089L226.922 225.755C225.062 223.667 224.193 222.453 224.542 222.453C224.776 222.453 225.875 222.917 227.094 223.438ZM264.906 225.063C264.906 225.349 264.677 225.234 264.385 224.771C264.094 224.307 263.865 223.495 263.865 223.031C263.865 222.104 264.849 223.958 264.906 225.063ZM275.984 222.859C275.984 223.146 275.172 224.193 274.187 225.234C272.505 227.089 272.391 227.151 271.635 226.104C271.172 225.526 270.766 224.885 270.766 224.656C270.766 224.365 273.198 223.323 275.87 222.51C275.927 222.453 275.984 222.625 275.984 222.859ZM305.099 224.016C304.458 224.943 302.839 226.682 301.5 227.958C299.354 230.047 298.661 230.339 293.964 231.208L288.745 232.078L292.396 228.25C295.932 224.479 296.052 224.422 300.63 223.495C303.182 222.974 305.505 222.568 305.734 222.51C306.026 222.453 305.677 223.146 305.099 224.016ZM236.026 224.599C235.328 225.755 235.214 225.406 235.734 223.901C235.969 223.38 236.255 223.089 236.375 223.26C236.547 223.38 236.375 224.016 236.026 224.599ZM245.245 225.641C244.901 227.38 244.781 227.552 244.724 226.396C244.667 224.943 245.187 222.797 245.536 223.146C245.651 223.26 245.479 224.365 245.245 225.641ZM255.687 225.875C255.687 227.729 255.339 227.266 254.875 224.771C254.641 223.323 254.698 222.974 255.104 223.609C255.396 224.073 255.687 225.12 255.687 225.875ZM239.797 226.339C239.214 227.844 238.75 226.802 239.271 225.005C239.562 223.786 239.74 223.609 239.911 224.365C240.026 224.943 239.969 225.813 239.797 226.339ZM261.427 226.51C261.484 227.266 261.427 227.266 260.906 226.51C260.615 226.047 260.385 225.12 260.385 224.479V223.323L260.906 224.479C261.198 225.12 261.427 226.047 261.427 226.51ZM213.641 226.51C215.901 227.089 217.292 228.021 220.135 230.745C222.104 232.714 223.672 234.396 223.5 234.516C223.38 234.63 221.234 234.281 218.745 233.703C214.682 232.833 213.87 232.37 211.146 229.76C209.406 228.135 207.781 226.396 207.552 225.875C206.969 224.828 206.74 224.771 213.641 226.51ZM248.552 226.625C248.38 227.031 248.26 226.745 248.26 225.932C248.26 225.12 248.38 224.828 248.552 225.177C248.667 225.583 248.667 226.276 248.552 226.625ZM252.031 226.625C251.859 227.031 251.745 226.745 251.745 225.932C251.745 225.12 251.859 224.828 252.031 225.177C252.146 225.583 252.146 226.276 252.031 226.625ZM270.359 226.859C271.229 228.599 271.229 228.771 270.182 229.698C269.141 230.688 269.026 230.63 268.036 228.542C267.052 226.453 267.052 226.396 268.099 225.583C268.734 225.12 269.255 224.828 269.312 224.943C269.432 225.005 269.896 225.875 270.359 226.859ZM291.177 227.495C287.526 231.906 286.599 232.542 282.187 233.589C279.87 234.109 277.667 234.573 277.26 234.63C276.854 234.63 278.13 233.005 280.042 230.974C283.234 227.729 283.99 227.266 288.047 226.104C290.484 225.406 292.745 224.828 292.979 224.828C293.266 224.771 292.453 225.99 291.177 227.495ZM232.776 225.932C232.953 226.219 232.719 227.438 232.198 228.599C231.328 230.688 231.271 230.688 230.167 229.698C229.125 228.771 229.125 228.542 229.937 227.031C230.75 225.349 232.083 224.828 232.776 225.932ZM246.984 227.438C246.984 228.542 246.755 229.354 246.521 229.177C246.057 228.891 246.292 225.349 246.755 225.349C246.87 225.349 246.984 226.276 246.984 227.438ZM254.12 227.495C254.354 228.599 254.234 229.411 253.948 229.411C253.599 229.411 253.365 228.422 253.365 227.266C253.365 224.771 253.656 224.885 254.12 227.495ZM250.469 231.964C249.479 232.948 249.193 231.906 249.656 229.297L250.062 226.802L250.583 229.063C250.87 230.51 250.87 231.557 250.469 231.964ZM243.505 228.25C243.505 228.542 243.391 228.828 243.276 228.828C243.099 228.828 242.812 228.542 242.635 228.25C242.464 227.901 242.578 227.672 242.87 227.672C243.219 227.672 243.505 227.901 243.505 228.25ZM258.005 228.25C258.005 228.542 257.776 228.828 257.427 228.828C257.135 228.828 256.844 228.542 256.844 228.25C256.844 227.901 257.135 227.672 257.427 227.672C257.776 227.672 258.005 227.901 258.005 228.25ZM225.995 230.281C226.167 230.453 225.932 231.208 225.526 232.021L224.719 233.469L222.51 231.323C221.297 230.167 220.307 229.005 220.307 228.771C220.307 228.365 225.469 229.76 225.995 230.281ZM235.734 230.281C235.505 231.094 234.979 231.729 234.516 231.729C233.703 231.729 233.703 231.5 234.516 229.932C235.62 227.901 236.255 228.078 235.734 230.281ZM239.448 229.469C239.448 229.818 239.214 229.875 238.87 229.698C238.578 229.526 238.286 229.063 238.286 228.771C238.286 228.422 238.578 228.365 238.87 228.542C239.214 228.714 239.448 229.177 239.448 229.469ZM262.068 228.771C262.068 229.12 261.833 229.526 261.484 229.698C261.198 229.875 260.906 229.641 260.906 229.177C260.906 228.656 261.198 228.25 261.484 228.25C261.833 228.25 262.068 228.484 262.068 228.771ZM265.833 229.99C266.589 231.443 266.589 231.729 265.891 231.729C265.083 231.729 264.385 230.51 264.385 229.063C264.385 227.786 264.849 228.078 265.833 229.99ZM278.302 230.859C275.578 233.589 275.578 233.646 274.594 231.615C273.953 230.339 274.073 230.224 276.854 229.297C281.031 227.901 281.146 227.958 278.302 230.859ZM192.703 230.688L200.245 231.323L203.724 234.516C205.693 236.255 207.609 237.995 208.016 238.401C208.594 238.922 207.953 238.979 205.115 238.516C199.49 237.589 171.13 237.646 164.922 238.573C144.219 241.703 128.964 247.969 120.208 257.016C115.859 261.542 114.062 265.307 113.714 270.411C113.542 272.734 113.25 274.646 113.016 274.646C111.219 274.646 108.901 269.135 108.901 264.901C108.844 248.432 132.042 233.76 162.896 230.63C170.318 229.875 184.292 229.875 192.703 230.688ZM243.391 232.193C243.562 234.167 242.927 234.573 241.766 233.182C240.953 232.193 241.536 229.818 242.521 230.167C242.927 230.281 243.276 231.208 243.391 232.193ZM258.875 231.151C259.281 232.37 258.354 234.052 257.37 234.052C256.786 234.052 256.672 230.974 257.25 230.396C257.948 229.698 258.526 229.99 258.875 231.151ZM344.943 231.729C373.068 236.719 391.51 249.823 391.453 264.901C391.453 269.135 389.135 274.646 387.333 274.646C387.104 274.646 386.812 272.734 386.641 270.411C386.292 265.193 384.38 261.307 379.854 256.786C371.036 247.911 354.859 241.297 335.427 238.573C329.516 237.76 305.677 237.589 297.734 238.281L292.51 238.75L295.995 235.266C298.198 233.005 300.052 231.615 301.214 231.443C311.073 229.641 334.036 229.76 344.943 231.729ZM230.167 232.484C230.167 233.411 228.833 236.37 228.37 236.37C228.198 236.37 227.557 236.021 226.922 235.557C225.818 234.745 225.818 234.688 226.922 232.656C227.849 230.917 228.198 230.688 229.068 231.208C229.703 231.5 230.167 232.078 230.167 232.484ZM237.88 232.021C237.474 233.24 237.125 233.12 237.125 231.672C237.125 231.036 237.359 230.63 237.708 230.859C237.995 231.036 238.115 231.557 237.88 232.021ZM263.224 231.844C263.224 232.891 263.109 233.005 262.703 232.313C262.354 231.844 262.297 231.266 262.411 231.036C262.937 230.224 263.224 230.51 263.224 231.844ZM273.667 232.948C274.359 234.573 274.359 234.859 273.375 235.557C271.865 236.661 271.693 236.604 270.651 234.339C269.781 232.37 269.781 232.25 270.937 231.443C272.391 230.453 272.734 230.63 273.667 232.948ZM216.771 237.182C218.682 239.094 220.193 240.719 220.135 240.776C219.844 241.068 211.844 239.443 210.974 238.922C210.448 238.63 208.479 236.948 206.562 235.151L203.083 231.906L208.187 232.833C213.234 233.76 213.349 233.818 216.771 237.182ZM297.443 231.964C297.443 232.021 295.646 233.76 293.443 235.734C289.615 239.094 289.151 239.328 284.859 240.083C282.365 240.49 280.276 240.776 280.161 240.719C280.042 240.661 281.609 239.036 283.526 237.182C286.885 233.932 287.349 233.703 291.818 232.776C297.385 231.672 297.443 231.672 297.443 231.964ZM247.391 233.24C247.51 233.589 246.927 234.167 246.115 234.516C244.495 235.266 244.375 235.094 245.365 233.469C246.115 232.313 247.047 232.193 247.391 233.24ZM255.687 234.688C255.687 234.979 255.047 234.859 254.234 234.516C252.729 233.875 252.495 233.411 253.193 232.714C253.599 232.25 255.687 233.932 255.687 234.688ZM234.807 233.818C234.807 234.281 234.578 234.516 234.229 234.339C233.937 234.167 233.646 233.76 233.646 233.411C233.646 233.12 233.937 232.891 234.229 232.891C234.578 232.891 234.807 233.297 234.807 233.818ZM266.359 233.76C266.125 234.224 265.891 234.63 265.776 234.63C265.661 234.63 265.547 234.224 265.547 233.76C265.547 233.297 265.776 232.891 266.125 232.891C266.417 232.891 266.531 233.297 266.359 233.76ZM233.646 236.427C233.646 237.646 233.417 237.703 231.5 237.182C230.286 236.833 230.286 236.776 231.156 235.443C231.849 234.339 232.255 234.167 232.833 234.688C233.302 235.036 233.646 235.849 233.646 236.427ZM269.141 237.068C267.458 237.76 266.703 237.589 266.703 236.484C266.703 235.906 267.052 235.094 267.401 234.745C267.979 234.167 268.328 234.281 269.141 235.328C270.068 236.604 270.068 236.661 269.141 237.068ZM220.948 235.615C222.745 235.964 223.036 236.776 221.932 238.224C221.234 239.094 220.891 238.922 218.568 236.833C216.073 234.63 216.073 234.516 217.641 234.859C218.51 235.094 220.021 235.443 220.948 235.615ZM238.635 235.557C238.464 236.078 238.286 236.719 238.286 237.005C238.286 237.297 238.057 237.531 237.708 237.531C237.068 237.531 236.896 235.615 237.531 235.036C238.229 234.281 238.984 234.63 238.635 235.557ZM263.224 235.734C263.63 236.542 263.63 237.005 263.167 237.297C262.469 237.703 261.484 236.604 261.484 235.328C261.484 234.224 262.531 234.516 263.224 235.734ZM281.495 236.948C279.406 239.094 279.115 239.214 278.479 238.281C277.26 236.661 277.609 235.964 279.927 235.328C283.641 234.339 283.812 234.573 281.495 236.948ZM247.104 236.484C246.698 236.891 246.406 236.948 246.406 236.604C246.406 236.255 246.578 235.792 246.812 235.615C246.984 235.385 247.333 235.328 247.51 235.5C247.625 235.672 247.453 236.135 247.104 236.484ZM259.745 236.37C259.745 236.661 259.63 236.948 259.516 236.948C259.339 236.948 259.052 236.661 258.875 236.37C258.703 236.021 258.818 235.792 259.109 235.792C259.453 235.792 259.745 236.021 259.745 236.37ZM227.036 237.589C227.443 238.281 225.469 241.589 224.599 241.589C223.036 241.589 222.573 240.026 223.615 238.281C224.542 236.604 226.224 236.255 227.036 237.589ZM251.047 237.589C251.047 237.88 250.641 238.109 250.177 238.109C249.307 238.109 249.016 237.411 249.656 236.776C250.12 236.313 251.047 236.833 251.047 237.589ZM277.724 240.255C277.724 240.661 277.203 241.24 276.62 241.589C275.693 242.052 275.286 241.88 274.302 240.49C272.734 238.344 272.797 237.589 274.417 237.005C275.464 236.604 275.87 236.833 276.682 238.052C277.26 238.865 277.724 239.849 277.724 240.255ZM232.432 239.036C232.547 239.151 232.547 239.443 232.312 239.62C232.141 239.792 231.385 239.5 230.63 238.979L229.297 237.995L230.75 238.401C231.557 238.63 232.312 238.922 232.432 239.036ZM242.349 239.271C242.349 239.906 241.943 240.427 241.479 240.427C240.432 240.427 240.375 239.734 241.302 238.807C242.229 237.88 242.349 237.938 242.349 239.271ZM259.63 240.198C259.052 240.776 258.005 239.849 258.005 238.807C258.005 237.938 258.062 237.938 258.99 238.865C259.516 239.385 259.802 239.964 259.63 240.198ZM269.896 239.271C269.312 239.906 268.62 240.255 268.385 240.083C267.516 239.557 267.807 238.807 268.906 238.516C270.823 237.995 270.937 238.109 269.896 239.271ZM205.75 239.849C208.13 240.198 210.505 240.833 211.089 241.182C213.349 242.807 216.828 246.286 216.599 246.75C216.422 246.984 214.51 246.927 212.365 246.635C206.391 245.766 179.771 245.823 173.625 246.693C150.307 250 134.302 256.495 125.021 266.469C121.948 269.776 119.979 273.719 119.979 276.734C119.979 277.839 119.859 278.708 119.745 278.708C118.703 278.708 115.396 276.099 115.104 275.052C112.786 266.411 120.615 255.797 134.245 248.953C143.115 244.49 156.979 240.719 169.333 239.328C175.479 238.63 200.01 238.979 205.75 239.849ZM329.979 239.271C348.13 241.125 364.542 246.578 374.635 254.172C382.812 260.38 386.99 268.5 385.25 275.052C384.958 276.099 381.651 278.708 380.609 278.708C380.49 278.708 380.375 277.719 380.375 276.505C380.375 273.083 377.88 268.792 373.474 264.672C358.917 250.927 328.062 243.677 294.542 246.172C289.266 246.578 284.74 246.927 284.453 246.984C284.161 247.042 283.87 246.807 283.755 246.464C283.583 246.115 285.089 244.604 287.062 243.099L290.599 240.37L297.615 239.62C306.375 238.63 322.031 238.516 329.979 239.271ZM230.516 242.109C230.109 242.693 227.266 243.042 227.266 242.458C227.266 242.344 227.557 241.531 227.964 240.719C228.604 239.214 228.661 239.214 229.76 240.37C230.401 240.953 230.687 241.766 230.516 242.109ZM266.703 240.427C267.229 241.359 267.167 241.589 266.417 241.589C265.953 241.589 265.547 241.068 265.547 240.427C265.547 239.792 265.661 239.271 265.833 239.271C265.953 239.271 266.359 239.792 266.703 240.427ZM273.083 242.286C273.083 242.979 270.302 242.807 269.896 242.109C269.661 241.823 269.953 241.01 270.531 240.37C271.578 239.214 271.578 239.214 272.328 240.547C272.734 241.297 273.026 242.052 273.083 242.286ZM234.807 240.719C234.807 241.182 234.401 241.589 233.937 241.589C233.417 241.589 233.24 241.24 233.417 240.719C233.646 240.255 233.995 239.849 234.286 239.849C234.578 239.849 234.807 240.255 234.807 240.719ZM250.932 240.833C250.698 242.109 249.656 241.995 249.422 240.776C249.307 240.198 249.599 239.849 250.177 239.849C250.755 239.849 251.047 240.255 250.932 240.833ZM218.802 242.172C219.031 242.458 218.917 243.156 218.51 243.792C217.698 244.896 217.641 244.896 215.38 242.979L213.057 241.01L215.667 241.359C217.12 241.589 218.51 241.938 218.802 242.172ZM263.224 244.661C263.224 244.896 262.703 244.781 262.068 244.375C261.427 243.969 260.906 242.979 260.906 242.172V240.719L262.068 242.458C262.703 243.385 263.224 244.375 263.224 244.661ZM284.917 242.979C282.714 244.839 282.656 244.896 281.901 243.792C280.911 242.458 281.146 242.172 283.641 241.589C287.062 240.776 287.234 240.953 284.917 242.979ZM238.521 244.318C237.01 245.417 236.839 244.781 238.057 242.922C238.984 241.474 239.156 241.417 239.333 242.401C239.448 243.042 239.099 243.849 238.521 244.318ZM248.38 242.516C248.552 242.979 248.495 243.214 248.146 243.042C247.797 242.865 247.568 242.458 247.568 242.109C247.568 241.297 247.974 241.474 248.38 242.516ZM223.266 243.505C223.266 244.198 221.234 247.391 220.828 247.391C220.599 247.391 220.135 246.984 219.729 246.521C218.682 245.245 220.656 242.109 222.167 242.693C222.802 242.922 223.266 243.271 223.266 243.505ZM280.391 244.198C282.187 246.984 279.698 247.854 277.781 245.125C276.219 242.979 276.276 242.75 278.016 242.75C278.885 242.75 279.812 243.271 280.391 244.198ZM245.651 244.604C245.479 245.068 245.307 244.896 245.307 244.255C245.245 243.62 245.422 243.271 245.594 243.505C245.771 243.677 245.828 244.198 245.651 244.604ZM254.932 244.604C254.76 245.068 254.583 244.896 254.583 244.255C254.526 243.62 254.698 243.271 254.875 243.505C255.047 243.677 255.104 244.198 254.932 244.604ZM228.719 244.49C228.542 244.781 228.021 244.896 227.557 244.661C226.339 244.255 226.458 243.911 227.906 243.911C228.542 243.911 228.948 244.141 228.719 244.49ZM273.667 244.141C273.667 244.661 271.927 244.953 271.635 244.49C271.401 244.141 271.807 243.911 272.448 243.911C273.141 243.911 273.667 244.026 273.667 244.141ZM243.969 245.823C244.089 246.521 243.797 246.807 242.984 246.807C241.651 246.807 241.594 246.75 242.115 245.359C242.578 244.255 243.74 244.49 243.969 245.823ZM227.266 245.938C227.266 246.057 226.458 246.75 225.411 247.448L223.615 248.781L224.656 246.984C225.297 245.938 226.052 245.302 226.516 245.474C226.922 245.651 227.266 245.88 227.266 245.938ZM233.068 245.589C233.068 246.229 231.385 247.62 231.036 247.271C230.458 246.75 231.443 245.068 232.255 245.068C232.719 245.068 233.068 245.302 233.068 245.589ZM258.583 245.651C258.583 246.344 256.964 247.099 256.5 246.635C255.974 246.115 256.844 245.068 257.776 245.068C258.24 245.068 258.583 245.359 258.583 245.651ZM269.255 245.995C269.839 247.563 269.083 247.734 267.75 246.344L266.474 245.068H267.693C268.328 245.068 269.083 245.474 269.255 245.995ZM276.042 247.563C276.62 248.609 276.562 248.609 275.172 247.677C273.604 246.635 273.375 246.115 274.073 245.474C274.474 245.068 274.88 245.474 276.042 247.563ZM249.016 246.865C249.656 247.854 248.958 248.083 248.146 247.099C247.682 246.578 247.682 246.229 248.031 246.229C248.38 246.229 248.844 246.521 249.016 246.865ZM252.208 247.099C251.802 247.62 251.339 247.854 251.219 247.734C250.812 247.333 251.625 246.229 252.323 246.229C252.672 246.229 252.672 246.578 252.208 247.099ZM211.495 247.734C213.464 247.969 215.089 248.375 215.089 248.609C215.089 248.896 214.391 250.172 213.521 251.391L211.901 253.708L200.589 253.771C171.13 253.828 146.13 260.672 133.318 272.151C130.01 275.109 126.937 279.458 126.937 281.083C126.937 282.01 126.703 282.01 124.036 280.854C121.37 279.693 121.135 279.401 121.135 277.547C121.135 271.052 129.547 262.411 141.146 256.958C151.99 251.854 165.271 248.609 181.453 247.156C184.932 246.865 206.911 247.271 211.495 247.734ZM237.359 247.333C237.531 247.62 237.302 248.141 236.839 248.547C236.083 249.13 235.969 249.073 235.969 248.026C235.969 246.807 236.781 246.401 237.359 247.333ZM264.385 248.375C264.385 249.13 264.214 249.13 263.516 248.547C263.052 248.141 262.818 247.62 262.995 247.333C263.458 246.578 264.385 247.271 264.385 248.375ZM326.729 247.969C342.797 250.115 357.932 255.104 366.807 261.193C374.115 266.12 379.214 272.906 379.214 277.604C379.214 279.578 379.042 279.75 376.547 280.734C375.099 281.26 373.88 281.667 373.823 281.547C373.766 281.432 373.068 280.042 372.312 278.531C368.255 270.531 354.682 262.583 337.344 258.177C325.047 254.984 319.016 254.234 302.896 253.943L288.396 253.651L287.12 251.797C284.568 248.083 284.51 248.141 291.469 247.677C294.891 247.505 298.021 247.214 298.312 247.042C299.354 246.635 321.974 247.333 326.729 247.969ZM228.661 248.26C228.312 249.188 227.266 249.479 227.266 248.667C227.266 248.026 227.906 247.391 228.484 247.391C228.776 247.391 228.833 247.797 228.661 248.26ZM272.969 248.432C273.318 249.479 272.099 249.245 271.693 248.203C271.458 247.62 271.635 247.391 272.042 247.505C272.391 247.62 272.854 248.083 272.969 248.432ZM219.323 248.896C219.958 249.594 216.193 253.771 214.974 253.771C213.698 253.771 213.698 253.708 215.667 250.755C217.005 248.724 218.453 248.026 219.323 248.896ZM284.74 250.693C286.656 253.771 286.656 253.771 285.38 253.771C284.276 253.771 281.203 250.406 281.203 249.188C281.203 247.677 283.526 248.724 284.74 250.693ZM247.453 250.349C246.349 251.099 245.828 250.984 245.828 250.057C245.828 249.536 246.234 249.359 247.047 249.536C247.974 249.766 248.031 250 247.453 250.349ZM254.526 249.943C254.526 250.521 254.12 250.635 253.25 250.406C252.031 250.115 252.031 250.057 253.135 249.651C253.714 249.417 254.292 249.188 254.411 249.188C254.469 249.13 254.526 249.479 254.526 249.943ZM221.469 249.943C221.469 250.057 221.005 250.521 220.484 250.927C219.557 251.682 219.495 251.625 220.25 250.693C221.005 249.766 221.469 249.479 221.469 249.943ZM280.104 250.693C280.854 251.625 280.797 251.682 279.927 250.927C278.943 250.172 278.651 249.708 279.115 249.708C279.234 249.708 279.698 250.172 280.104 250.693ZM227.266 250.521C227.266 251.156 226.167 251.391 225.818 250.87C225.646 250.578 225.875 250.286 226.339 250.286C226.865 250.286 227.266 250.406 227.266 250.521ZM274.823 250.521C274.823 251.156 273.724 251.391 273.375 250.87C273.198 250.578 273.432 250.286 273.896 250.286C274.417 250.286 274.823 250.406 274.823 250.521ZM223.208 251.099C223.208 251.219 222.745 251.682 222.224 252.089C221.297 252.839 221.234 252.781 221.99 251.854C222.745 250.927 223.208 250.635 223.208 251.099ZM232.776 251.448C233.182 252.146 229.76 253.943 228.948 253.422C228.141 252.958 230.052 250.87 231.385 250.87C231.964 250.87 232.547 251.099 232.776 251.448ZM270.995 251.969C272.391 253.536 271.229 254.057 268.969 252.839C267.516 252.146 267.286 251.797 267.922 251.391C269.141 250.635 269.896 250.755 270.995 251.969ZM278.365 251.854C279.115 252.781 279.057 252.839 278.187 252.089C277.203 251.333 276.911 250.87 277.375 250.87C277.49 250.87 277.958 251.333 278.365 251.854ZM243.333 251.797C243.161 251.969 242.635 252.026 242.229 251.854C241.766 251.682 241.943 251.505 242.578 251.505C243.219 251.448 243.562 251.625 243.333 251.797ZM224.948 252.26C224.948 252.375 224.25 252.958 223.38 253.479L221.76 254.521L222.859 253.302C223.849 252.146 224.948 251.625 224.948 252.26ZM248.958 252.901C248.609 253.828 247.568 254.115 247.568 253.302C247.568 252.667 248.203 252.026 248.786 252.026C249.073 252.026 249.13 252.432 248.958 252.901ZM252.552 253.594C252.146 254 251.047 253.188 251.047 252.495C251.047 252.146 251.396 252.146 251.917 252.609C252.437 253.016 252.672 253.479 252.552 253.594ZM276.854 252.609C277.026 252.958 276.797 253.016 276.333 252.839C275.286 252.432 275.115 252.026 275.927 252.026C276.276 252.026 276.682 252.26 276.854 252.609ZM234.286 255.682C233.24 256.724 232.833 255.625 233.646 253.943L234.458 252.318L234.693 253.708C234.807 254.464 234.635 255.333 234.286 255.682ZM266.995 254.406C267.922 256.089 267.865 256.203 266.88 255.974C266.24 255.854 265.776 255.161 265.661 254.172C265.427 252.146 265.891 252.203 266.995 254.406ZM236.839 253.708C237.01 254 236.896 254.406 236.547 254.641C236.255 254.813 235.969 254.578 235.969 254.115C235.969 253.073 236.318 252.901 236.839 253.708ZM264.385 254.115C264.385 254.578 264.094 254.813 263.807 254.641C263.458 254.406 263.344 254 263.516 253.708C264.036 252.901 264.385 253.073 264.385 254.115ZM228.141 254.349C228.312 254.641 228.078 254.927 227.557 254.927C227.036 254.927 226.802 254.641 226.979 254.349C227.151 254 227.443 253.771 227.557 253.771C227.672 253.771 227.964 254 228.141 254.349ZM243.505 254.292C243.505 254.87 241.766 255.682 241.359 255.276C241.187 255.104 241.245 254.755 241.479 254.406C241.943 253.651 243.505 253.536 243.505 254.292ZM258.875 254.292C259.453 255.276 258.182 255.51 257.427 254.641C256.844 253.943 256.844 253.771 257.599 253.771C258.12 253.771 258.646 254 258.875 254.292ZM273.083 254.349C273.083 254.641 272.797 254.927 272.448 254.927C272.156 254.927 272.042 254.641 272.214 254.349C272.391 254 272.677 253.771 272.854 253.771C272.969 253.771 273.083 254 273.083 254.349ZM208.943 257.771L206.797 260.609L201.229 261.016C186.266 262.005 174.026 264.208 162.604 267.979C151.005 271.745 142.594 276.385 137.667 281.667L134.88 284.62L131.516 283.635C129.604 283.057 128.094 282.359 128.094 282.068C128.094 280.911 130.125 277.776 132.677 275.052C140.854 266.297 157.5 259.453 177.974 256.438C186.729 255.161 186.964 255.104 199.604 255.047L211.031 254.927L208.943 257.771ZM214.51 255.333C214.51 255.625 213.12 256.958 211.437 258.406L208.422 261.016L210.099 258.698C211.031 257.422 212.073 256.031 212.365 255.625C212.943 254.87 214.51 254.641 214.51 255.333ZM240.026 256.438C240.026 257.25 239.333 257.536 238.693 256.901C238.172 256.38 238.927 254.87 239.505 255.276C239.797 255.448 240.026 255.974 240.026 256.438ZM245.245 255.51C245.245 255.797 244.958 256.089 244.609 256.089C244.318 256.089 244.203 255.797 244.375 255.51C244.552 255.161 244.839 254.927 245.016 254.927C245.13 254.927 245.245 255.161 245.245 255.51ZM255.974 255.51C256.151 255.797 256.036 256.089 255.745 256.089C255.396 256.089 255.104 255.797 255.104 255.51C255.104 255.161 255.224 254.927 255.339 254.927C255.51 254.927 255.802 255.161 255.974 255.51ZM289.786 258.12L291.932 261.016L288.859 258.526C285.203 255.448 284.74 254.755 286.422 255.047C287.12 255.161 288.568 256.495 289.786 258.12ZM317.974 255.797C340.125 258.406 358.917 265.714 367.677 275.052C370.229 277.776 372.255 280.911 372.255 282.068C372.255 282.359 370.75 283.057 368.833 283.635L365.469 284.62L362.979 281.953C352.771 270.875 328.932 263.104 298.776 260.958L293.5 260.609L291.703 258.12C290.714 256.724 289.901 255.448 289.901 255.276C289.901 254.578 310.781 254.984 317.974 255.797ZM217.411 256.667C216.771 257.885 213.292 260.729 212.422 260.729C212.187 260.729 213.12 259.568 214.51 258.12C217.234 255.391 218.453 254.755 217.411 256.667ZM261.948 256.552C262.068 256.958 261.776 257.25 261.255 257.25C260.729 257.25 260.328 256.844 260.328 256.318C260.328 255.333 261.599 255.51 261.948 256.552ZM285.552 257.828C286.771 259.104 287.641 260.266 287.469 260.438C287.062 260.901 283.698 258 282.885 256.609C281.958 254.813 283.12 255.333 285.552 257.828ZM220.891 258.406C218.453 260.552 216.479 261.422 216.943 260.146C217.234 259.276 221.703 256.146 222.63 256.146C223.094 256.146 222.339 257.13 220.891 258.406ZM280.568 257.594C282.885 259.104 284.047 260.729 282.771 260.729C281.844 260.672 276.682 256.089 277.609 256.089C278.016 256.089 279.349 256.786 280.568 257.594ZM230.458 257.25C230.286 257.536 229.531 258.12 228.833 258.464C227.615 259.047 227.615 258.99 228.948 257.885C230.401 256.552 231.036 256.318 230.458 257.25ZM251.047 258.464C251.047 259.047 250.641 259.568 250.177 259.568C249.307 259.568 248.958 257.771 249.656 257.073C250.292 256.495 251.047 257.25 251.047 258.464ZM272.156 258.349C272.391 258.641 271.865 258.583 271.052 258.234C270.245 257.828 269.604 257.307 269.604 257.073C269.604 256.552 271.693 257.594 272.156 258.349ZM274.88 258.234L276.276 259.859L274.536 258.406C273.604 257.594 272.677 256.901 272.562 256.786C272.448 256.724 272.562 256.667 272.911 256.667C273.198 256.667 274.073 257.365 274.88 258.234ZM226.687 257.422C226.687 257.536 226.167 258.12 225.526 258.698C224.135 259.917 223.964 259.51 225.297 258.177C226.167 257.307 226.687 257.016 226.687 257.422ZM234.807 259.219C234.807 259.625 234.344 260.146 233.823 260.323C233.24 260.438 232.255 260.786 231.62 261.016C230.807 261.307 230.979 260.958 232.198 259.917C234.172 258.234 234.807 258.063 234.807 259.219ZM268.156 259.917C269.375 260.958 269.547 261.307 268.734 261.016C268.099 260.786 267.109 260.438 266.589 260.323C266.01 260.146 265.547 259.625 265.547 259.219C265.547 258.063 266.182 258.234 268.156 259.917ZM222.51 260.089C222.104 260.729 221.583 261.078 221.297 260.901C221.062 260.729 221.297 260.266 221.875 259.802C223.266 258.755 223.323 258.813 222.51 260.089ZM240.609 259.917C240.609 260.38 240.318 260.609 240.026 260.438C239.677 260.208 239.562 259.802 239.74 259.51C240.26 258.698 240.609 258.87 240.609 259.917ZM260.615 259.51C260.792 259.802 260.672 260.208 260.328 260.438C260.036 260.609 259.745 260.38 259.745 259.917C259.745 258.87 260.094 258.698 260.615 259.51ZM229.01 260.438C228.604 260.901 227.849 261.307 227.328 261.307C226.687 261.25 226.865 261.016 227.849 260.438C229.703 259.396 229.88 259.396 229.01 260.438ZM273.083 261.193C272.677 261.365 271.984 261.016 271.458 260.438C270.531 259.568 270.589 259.51 272.156 260.208C273.026 260.609 273.49 261.078 273.083 261.193ZM279.115 260.786C278.766 261.422 277.724 260.901 277.724 260.146C277.724 259.859 278.13 259.74 278.594 259.917C279.057 260.146 279.292 260.495 279.115 260.786ZM239.214 261.599C240.26 262.411 240.203 262.411 238.464 262.469C236.661 262.469 236.083 261.948 236.953 261.135C237.531 260.552 237.937 260.609 239.214 261.599ZM263.687 261.771C263.807 262.234 263.224 262.469 261.948 262.469C260.151 262.411 260.094 262.411 261.198 261.599C262.411 260.609 263.344 260.729 263.687 261.771ZM203.083 265.25L200.302 268.672L193.339 269.719C175.708 272.328 159.125 277.953 148.974 284.797C145.552 287.115 144.391 287.172 138.823 285.609L136.505 284.969L140.448 281.318C151.76 270.76 175.073 263.745 204.536 261.948C205.807 261.885 205.635 262.177 203.083 265.25ZM220.307 262.641C219.844 263.104 218.396 264.031 217.12 264.729L214.797 266.063L216.943 263.974C218.161 262.818 219.557 261.885 220.135 261.885C221.005 261.885 221.005 262.005 220.307 262.641ZM246.406 262.755C246.406 263.745 246.292 263.802 244.958 263.281C244.203 262.99 244.146 262.818 244.781 262.411C245.885 261.656 246.406 261.771 246.406 262.755ZM255.568 262.411C256.208 262.818 256.208 262.932 255.51 263.224C254.583 263.568 253.948 263.224 253.948 262.354C253.948 261.771 254.583 261.771 255.568 262.411ZM283.406 263.974L285.552 266.005L282.536 264.208C279.292 262.234 278.943 261.885 280.391 261.885C280.854 261.885 282.25 262.818 283.406 263.974ZM310.49 263.396C331.255 265.833 350.625 272.792 359.729 281.083C361.818 283 363.443 284.797 363.266 285.026C363.151 285.318 361.062 285.839 358.745 286.245L354.453 286.943L351.609 284.911C342.391 278.359 323.948 272.094 306.724 269.661L299.937 268.672L297.208 265.307L294.484 261.885L298.719 262.177C301.036 262.411 306.375 262.932 310.49 263.396ZM224.891 263.568C224.135 264.151 222.859 264.964 222.104 265.37L220.714 266.063L221.99 264.266C222.859 263.047 223.786 262.469 224.776 262.469H226.281L224.891 263.568ZM252.208 263.917C252.208 264.094 251.219 264.208 250.062 264.208C248.031 264.151 247.917 264.094 248.958 263.339C249.714 262.755 250.349 262.698 251.104 263.104C251.745 263.396 252.208 263.802 252.208 263.917ZM277.146 263.047C277.781 263.396 278.536 264.208 278.943 264.844C279.521 265.948 279.464 266.005 278.187 265.307C277.432 264.964 276.219 264.151 275.464 263.568C274.359 262.698 274.302 262.469 275.057 262.469C275.635 262.469 276.562 262.755 277.146 263.047ZM230.167 263.917C229.76 264.438 229.297 264.672 229.182 264.557C228.776 264.151 229.589 263.047 230.286 263.047C230.63 263.047 230.63 263.396 230.167 263.917ZM233.646 264.208C232.255 265.078 231.557 264.844 232.833 263.974C233.417 263.51 234.052 263.281 234.229 263.396C234.344 263.568 234.109 263.917 233.646 264.208ZM268.214 264.615C267.865 264.964 266.125 264.094 266.125 263.568C266.125 263.281 266.646 263.339 267.286 263.745C267.865 264.151 268.328 264.557 268.214 264.615ZM271.052 263.688C271.693 264.672 271.172 264.729 269.953 263.859C268.969 263.161 268.969 263.047 269.719 263.047C270.245 263.047 270.88 263.339 271.052 263.688ZM240.203 265.37C239.911 266.583 237.417 267.573 236.661 266.818C236.198 266.354 238.693 264.208 239.74 264.208C240.203 264.208 240.375 264.672 240.203 265.37ZM243.505 264.438C243.505 264.615 243.276 264.901 242.927 265.078C242.635 265.25 242.349 265.135 242.349 264.844C242.349 264.5 242.635 264.208 242.927 264.208C243.276 264.208 243.505 264.323 243.505 264.438ZM258.005 264.786C258.005 265.078 257.891 265.37 257.776 265.37C257.599 265.37 257.307 265.078 257.135 264.786C256.964 264.438 257.078 264.208 257.37 264.208C257.714 264.208 258.005 264.438 258.005 264.786ZM262.703 265.307C264.328 266.646 263.865 267.396 261.776 266.875C260.849 266.646 260.328 266.12 260.328 265.37C260.328 263.917 260.964 263.917 262.703 265.307ZM206.391 264.964C206.391 265.078 205.521 265.891 204.536 266.875L202.62 268.557L204.302 266.646C205.927 264.901 206.391 264.5 206.391 264.964ZM226.687 265.307C226.687 266.469 224.776 267.688 223.036 267.688H221.177L223.5 266.24C226.052 264.672 226.687 264.5 226.687 265.307ZM276.156 266.063C277.49 266.703 278.245 267.396 277.839 267.573C276.797 267.922 273.839 266.583 273.432 265.599C273.026 264.5 273.26 264.557 276.156 266.063ZM282.943 267.224C282.943 267.922 282.594 267.745 281.437 266.469C280.333 265.193 280.333 265.193 281.667 266.005C282.365 266.469 282.943 266.99 282.943 267.224ZM218.568 266.818C218.161 267.281 217.583 267.688 217.234 267.688C216.885 267.688 217.12 267.281 217.755 266.818C219.208 265.714 219.495 265.714 218.568 266.818ZM232.141 266.818C231.557 267.281 230.516 267.63 229.88 267.63C229.01 267.63 229.125 267.453 230.458 266.818C232.776 265.776 233.531 265.776 232.141 266.818ZM270.766 267.167C271.458 267.573 271.401 267.63 270.417 267.688C269.781 267.688 268.734 267.281 268.099 266.76C267.052 265.948 267.052 265.891 268.443 266.297C269.255 266.469 270.302 266.875 270.766 267.167ZM235.385 267.109C235.385 267.396 235.099 267.688 234.75 267.688C234.458 267.688 234.344 267.396 234.516 267.109C234.693 266.76 234.979 266.526 235.156 266.526C235.271 266.526 235.385 266.76 235.385 267.109ZM245.828 266.932C245.771 268.036 244.781 268.849 243.911 268.5C242.172 267.859 242.87 266.99 245.422 266.583C245.651 266.583 245.828 266.703 245.828 266.932ZM256.906 267.109C257.776 267.109 257.484 268.094 256.437 268.5C255.917 268.729 255.281 268.557 254.99 268.151C254.292 266.932 254.469 266.354 255.453 266.76C255.974 266.932 256.615 267.109 256.906 267.109ZM251.339 268.208C251.802 269.021 250.583 269.599 249.422 269.135C248.609 268.849 248.609 268.729 249.307 268.266C250.406 267.573 250.87 267.573 251.339 268.208ZM220.891 269.078C220.891 269.193 220.365 269.427 219.729 269.599C219.089 269.776 218.682 269.661 218.917 269.37C219.208 268.849 220.891 268.615 220.891 269.078ZM227.849 269.078C227.849 269.193 227.443 269.484 226.922 269.661C226.458 269.833 226.224 269.776 226.396 269.427C226.745 268.849 227.849 268.615 227.849 269.078ZM273.953 269.427C274.13 269.776 273.896 269.833 273.432 269.661C272.391 269.255 272.214 268.849 273.026 268.849C273.375 268.849 273.781 269.078 273.953 269.427ZM280.448 272.094C279.984 272.615 276.505 270.995 275.984 270.005C275.521 269.078 275.812 269.135 278.073 270.411C279.521 271.224 280.568 271.979 280.448 272.094ZM281.495 269.427C281.667 269.776 281.437 269.833 280.974 269.661C279.927 269.255 279.755 268.849 280.568 268.849C280.911 268.849 281.318 269.078 281.495 269.427ZM224.37 270.068C224.37 270.589 220.948 272.328 219.901 272.328C219.495 272.328 223.729 269.484 224.25 269.427C224.312 269.427 224.37 269.719 224.37 270.068ZM238.286 270.297C238.286 270.76 238.057 271.167 237.708 271.167C237.417 271.167 237.125 270.76 237.125 270.297C237.125 269.833 237.417 269.427 237.708 269.427C238.057 269.427 238.286 269.833 238.286 270.297ZM241.766 270.005C241.766 270.297 241.359 270.589 240.896 270.589C240.432 270.589 240.026 270.297 240.026 270.005C240.026 269.661 240.432 269.427 240.896 269.427C241.359 269.427 241.766 269.661 241.766 270.005ZM260.328 270.005C260.328 270.297 259.922 270.589 259.453 270.589C258.99 270.589 258.583 270.297 258.583 270.005C258.583 269.661 258.99 269.427 259.453 269.427C259.922 269.427 260.328 269.661 260.328 270.005ZM263.224 270.646C263.224 270.938 262.995 271.167 262.646 271.167C262.354 271.167 262.068 270.76 262.068 270.24C262.068 269.776 262.354 269.542 262.646 269.719C262.995 269.891 263.224 270.297 263.224 270.646ZM195.255 274.01C191.661 277.953 191.542 278.01 186.495 279.286C179.479 280.969 172.172 283.464 165.734 286.245C160.401 288.568 160.167 288.625 155.646 288.219C153.094 287.984 150.422 287.635 149.615 287.464C148.276 287.057 148.339 287 150.542 285.552C154.948 282.651 163.417 278.708 170.375 276.385C176.292 274.417 189.917 271.281 196.24 270.411C197.224 270.297 198.214 270.125 198.443 270.068C198.734 270.068 197.286 271.807 195.255 274.01ZM275.344 272.677C275.812 273.083 276.042 273.604 275.87 273.833C275.344 274.297 269.026 271.401 269.026 270.646C269.026 269.948 274.187 271.573 275.344 272.677ZM314.26 272.385C323.771 274.24 334.5 277.547 340.937 280.62C345.812 282.943 352.13 286.828 351.786 287.234C351.609 287.349 349 287.755 345.87 288.042L340.245 288.625L335.198 286.479C329.052 283.813 320.583 280.911 313.854 279.229C308.87 277.953 308.635 277.839 305.042 274.01L301.328 270.068L303.589 270.354C304.865 270.531 309.62 271.458 314.26 272.385ZM231.328 270.875C231.328 271.339 225.411 274.068 224.37 274.068C223.729 274.068 223.729 273.891 224.542 273.021C226.109 271.516 231.328 269.833 231.328 270.875ZM235.969 271.167C235.969 271.458 235.385 271.745 234.693 271.745C233.589 271.745 233.531 271.63 234.229 271.167C235.328 270.411 235.969 270.411 235.969 271.167ZM248.146 271.401C248.146 271.865 248.323 272.615 248.495 273.141C248.786 273.891 248.437 274.068 246.984 274.068C245.365 274.068 245.187 273.953 245.594 272.734C246.177 270.76 248.146 269.776 248.146 271.401ZM250.99 271.281C250.99 271.688 250.755 272.557 250.469 273.198C250.062 274.125 249.943 274.182 249.943 273.37C249.885 272.849 249.714 272.036 249.536 271.516C249.307 270.875 249.479 270.589 250.12 270.589C250.641 270.589 251.047 270.938 250.99 271.281ZM254.641 271.979C255.568 273.313 255.047 274.068 253.307 274.068C251.917 274.068 251.568 273.891 251.859 273.141C252.031 272.615 252.208 271.865 252.208 271.401C252.208 270.531 253.948 270.938 254.641 271.979ZM266.125 271.516C266.125 271.63 265.719 271.745 265.255 271.745C264.792 271.745 264.385 271.516 264.385 271.167C264.385 270.875 264.792 270.76 265.255 270.938C265.719 271.167 266.125 271.401 266.125 271.516ZM244.26 272.328C244.089 272.964 243.854 273.484 243.74 273.484C243.625 273.484 243.505 272.964 243.505 272.328C243.505 271.688 243.74 271.167 244.031 271.167C244.318 271.167 244.432 271.688 244.26 272.328ZM256.844 272.615C256.844 273.427 256.729 274.068 256.615 274.068C256.5 274.068 256.266 273.427 256.151 272.615C255.974 271.807 256.094 271.167 256.323 271.167C256.615 271.167 256.844 271.807 256.844 272.615ZM242.349 272.964C242.349 273.255 241.479 273.484 240.49 273.484L238.578 273.427L240.026 272.677C241.479 271.865 242.349 271.922 242.349 272.964ZM260.328 272.615L261.776 273.427L259.922 273.484C258.583 273.484 258.005 273.198 258.005 272.615C258.005 271.573 258.469 271.573 260.328 272.615ZM229.068 275.458C228.312 276.328 222.802 277.896 222.281 277.375C221.641 276.734 226.224 274.88 228.948 274.703C229.531 274.646 229.589 274.823 229.068 275.458ZM235.677 275.229C235.505 275.516 234.75 275.807 234.052 275.75C232.833 275.75 232.833 275.693 233.937 275.229C235.562 274.531 236.083 274.531 235.677 275.229ZM239.854 274.995C239.677 275.167 239.156 275.229 238.75 275.052C238.286 274.88 238.464 274.703 239.099 274.703C239.74 274.646 240.083 274.823 239.854 274.995ZM261.891 274.995C261.719 275.167 261.198 275.229 260.792 275.052C260.328 274.88 260.5 274.703 261.135 274.703C261.776 274.646 262.125 274.823 261.891 274.995ZM266.125 275.229C266.88 275.75 266.88 275.807 266.125 275.807C265.661 275.807 264.849 275.516 264.385 275.229C263.63 274.703 263.63 274.646 264.385 274.646C264.849 274.646 265.661 274.938 266.125 275.229ZM274.708 275.516C278.365 276.62 279.406 277.776 276.156 277.198C273.953 276.792 270.766 275.458 270.766 274.938C270.766 274.474 271.521 274.589 274.708 275.516ZM249.307 277.255C249.307 279.229 249.25 279.286 246.984 279.286C245.365 279.286 244.667 279.052 244.609 278.417C244.552 277.953 244.495 277.198 244.432 276.849C244.375 276.214 246.234 275.516 248.609 275.286C249.016 275.229 249.307 275.979 249.307 277.255ZM255.802 276.271C256.036 276.505 256.094 277.255 255.917 278.01C255.63 279.052 255.161 279.286 253.307 279.286C251.104 279.286 251.047 279.229 251.047 277.198V275.109L253.25 275.516C254.411 275.693 255.568 276.099 255.802 276.271ZM242.693 277.083C242.521 277.839 242.349 278.651 242.349 278.88C242.349 279.172 241.359 279.286 240.203 279.172C238.464 279.052 237.937 278.708 237.823 277.719C237.651 276.734 237.995 276.443 239.271 276.214C242.87 275.693 243.099 275.75 242.693 277.083ZM261.37 276.385C262.469 276.385 262.703 276.677 262.531 277.661C262.411 278.766 261.948 279.052 260.208 279.172C258.99 279.286 258.005 279.172 258.005 278.88C258.005 278.651 257.833 277.776 257.599 277.026C257.307 275.75 257.37 275.693 258.646 275.979C259.396 276.214 260.615 276.385 261.37 276.385ZM235.562 277.896C235.156 279.052 233.01 279.865 230.401 279.865C228.604 279.865 228.427 279.75 229.01 278.766C229.589 277.604 230.807 277.198 234.052 277.026C235.562 276.969 235.849 277.141 235.562 277.896ZM270.88 278.302C271.635 279.521 271.401 279.865 269.661 279.865C267.167 279.865 264.964 278.88 264.964 277.776C264.964 276.969 265.37 276.849 267.693 277.198C269.198 277.375 270.589 277.896 270.88 278.302ZM227.849 278.359C227.849 279.458 225.646 280.448 223.323 280.391L220.599 280.328L223.5 279.286C226.396 278.182 227.849 277.896 227.849 278.359ZM276.333 279.052C279.521 280.156 280.797 280.969 278.766 280.677C274.13 280.042 273.141 279.75 272.854 278.995C272.448 277.896 272.797 277.896 276.333 279.052ZM188.411 281.432C186.615 283.75 182.901 286.13 179.479 287.172C176.698 288.042 163.995 289.089 164.635 288.391C165.734 287.234 186.151 280.156 189.167 279.922C189.453 279.865 189.109 280.563 188.411 281.432ZM318.323 281.896C322.208 283.057 327.776 284.969 330.734 286.13L336.01 288.276L332.24 288.448C325.63 288.74 317.453 286.651 314.26 283.813C312.812 282.474 310.552 279.865 310.896 279.865C311.13 279.865 314.437 280.797 318.323 281.896ZM229.411 291.057C220.771 308.286 211.375 321.391 199.953 332.234C186.323 345.229 172.927 351.432 164.052 348.88C160.458 347.839 159.875 347.026 160.281 343.896L160.687 341.052L164.052 341.224C173.74 341.807 186.672 334.557 199.719 321.333C209 311.938 217.292 300.573 225.005 286.708L228.141 281.083L231.036 280.911C232.604 280.797 234.052 280.797 234.172 280.911C234.344 280.969 232.198 285.552 229.411 291.057ZM237.708 284.911L238.401 289.438L236.375 294.073C233.766 300.224 229.995 307.646 227.208 312.229C225.932 314.255 224.948 316.057 224.948 316.115C224.948 316.229 223.5 318.49 221.703 321.161C211.495 336.182 199.49 347.839 187.833 354.042C183.135 356.536 175.828 358.74 172.172 358.74C168.927 358.74 164.573 357.234 162.198 355.26C160.344 353.693 159.995 353.057 159.995 351.203V348.938L162.37 349.75C171.943 353.172 186.615 347.083 200.708 333.859C213.349 321.969 224.776 305.208 233.823 285.203C235.042 282.594 236.198 280.448 236.49 280.448C236.781 280.448 237.302 282.474 237.708 284.911ZM240.781 282.88C239.797 285.839 238.87 287 238.87 285.26C238.87 284.62 238.693 283.229 238.521 282.245C238.172 280.563 238.229 280.448 239.911 280.448H241.651L240.781 282.88ZM244.839 285.839L245.771 290.365L243.969 295.12L242.115 299.875L241.073 295.526C240.547 293.146 240.083 290.651 240.026 290.016C240.026 288.333 243.042 280.328 243.505 280.854C243.74 281.083 244.318 283.344 244.839 285.839ZM247.625 283.984L246.698 287.521L246 285.318C244.839 281.432 245.016 280.448 246.87 280.448H248.552L247.625 283.984ZM251.802 285.552L253.193 290.25L251.802 295.063C251.047 297.672 250.349 299.932 250.234 299.99C250.12 300.109 249.422 297.901 248.609 295.12C247.333 290.536 247.219 289.781 247.917 287.698C248.323 286.422 248.958 284.214 249.307 282.823C249.656 281.49 250.062 280.448 250.177 280.563C250.349 280.677 251.047 282.943 251.802 285.552ZM255.104 281.432C255.104 282.708 253.948 287 253.656 286.708C253.599 286.651 253.078 285.146 252.615 283.464L251.682 280.448H253.422C254.641 280.448 255.104 280.734 255.104 281.432ZM259.167 285.781L260.5 289.667L259.453 294.714C258.24 300.396 258.062 300.339 255.745 293.323C254.698 290.25 254.583 289.318 255.104 287.234C255.453 285.896 256.036 283.75 256.38 282.474C257.021 279.865 257.193 280.042 259.167 285.781ZM261.833 281.724C261.661 282.474 261.484 283.635 261.484 284.333C261.484 286.479 260.672 285.896 259.63 283.057L258.646 280.448H260.443C262.005 280.448 262.182 280.62 261.833 281.724ZM265.604 283.172C267.635 287.984 273.667 299.703 276.74 304.802C285.844 319.943 297.906 333.745 308.75 341.516C313.391 344.766 321.917 348.995 325.974 349.984C329.745 350.854 335.141 350.797 337.979 349.75L340.417 348.88L340.245 351.318C340.068 353.406 339.719 354.042 337.635 355.609C334.156 358.276 329.802 359.146 324.583 358.276C315.771 356.771 306.026 351.203 296.458 342.271C283.87 330.438 272.677 313.969 264.385 294.943L262.005 289.438L262.703 284.911C263.052 282.474 263.63 280.448 263.922 280.448C264.214 280.448 264.964 281.667 265.604 283.172ZM272.911 282.068C273.604 283.927 279.115 293.552 282.307 298.427C294.948 317.677 309.042 331.484 323.078 338.151C327.948 340.531 332.354 341.516 336.589 341.224L339.661 341.052L340.068 343.896C340.474 347.026 339.896 347.839 336.302 348.88C326.964 351.547 312.755 344.646 298.547 330.38C287.177 319.016 279.057 307.354 270.708 290.594C268.214 285.49 266.125 281.198 266.125 281.026C266.125 280.854 267.573 280.854 269.375 280.911C271.693 281.083 272.677 281.375 272.911 282.068ZM223.729 286.073C211.844 307.76 195.833 325.917 180.583 334.844C173.562 338.964 164.401 341.281 161.792 339.661C161.094 339.198 161.094 338.615 161.677 335.714L162.427 332.292L165.969 331.656C180.12 328.932 201.578 309.792 216.365 286.708C219.323 282.13 219.729 281.839 223.964 281.667L226.167 281.604L223.729 286.073ZM279.349 281.953C280.797 282.245 281.781 283.286 284.802 287.87C292.047 298.948 301.906 310.432 310.953 318.375C318.786 325.219 329.281 331.021 335.37 331.828L337.922 332.177L338.62 335.714C339.432 340.005 339.083 340.354 334.271 340.005C330.443 339.719 324.526 337.573 319.365 334.557C304.693 325.974 287.932 306.891 276.276 285.49L274.13 281.604H275.87C276.797 281.604 278.365 281.781 279.349 281.953ZM216.536 283.75C203.318 304.396 187.771 320.229 173.562 327.307C170.203 328.99 163.589 331.25 163.182 330.786C163.068 330.672 163.646 328.583 164.516 326.146C165.849 322.146 166.198 321.563 167.88 321.042C172.87 319.359 182.844 312.229 191.833 303.875C195.719 300.281 205.984 288.448 208.13 285.146C208.828 284.099 209.927 283.635 213.057 283.057C215.323 282.651 217.234 282.302 217.349 282.245C217.469 282.245 217.062 282.88 216.536 283.75ZM290.714 283.75C291.062 283.87 293.208 286.359 295.411 289.26C305.792 302.776 322.208 316.807 332.125 320.755C334.443 321.74 334.62 321.911 335.953 326.203C336.703 328.641 337.229 330.729 337.109 330.786C336.766 331.25 330.036 328.932 326.5 327.13C318.609 323.13 308.75 315.188 301.094 306.604C294.891 299.641 283.526 284.391 283.526 283C283.526 282.651 289.557 283.229 290.714 283.75ZM206.391 284.854C206.391 286.828 186.901 307.068 180.406 311.766C176.172 314.839 167.417 320 167.068 319.594C166.896 319.479 168.057 316.75 169.562 313.62C171.479 309.563 172.75 307.589 173.969 306.891C177.448 304.865 184.818 298.656 190.906 292.682C197.109 286.594 197.224 286.536 201.344 285.552C206.333 284.448 206.391 284.448 206.391 284.854ZM299.24 285.724C302.896 286.422 303.068 286.536 309.911 293.203C316.115 299.177 326.5 307.703 327.599 307.703C328.062 307.703 333.573 319.302 333.281 319.651C332.818 320.057 323.891 314.661 319.536 311.302C313.505 306.719 306.896 300.339 300.979 293.495C295.005 286.708 293.151 284.099 294.656 284.62C295.182 284.854 297.271 285.318 299.24 285.724ZM189.573 291.813C185.396 296.047 174.958 304.922 174.609 304.516C174.146 304.109 179.536 296.104 181.917 293.609C185.339 290.073 189.745 287.578 192.76 287.464C193.573 287.406 192.703 288.568 189.573 291.813ZM312.927 289.26C314.26 289.844 316.812 291.927 318.495 293.786C321.51 297.031 326.266 304.052 325.745 304.516C325.396 304.922 314.26 295.349 310.203 291.177L306.432 287.292L308.464 287.698C309.562 287.927 311.594 288.625 312.927 289.26ZM141.26 288.911C141.089 289.089 140.562 289.146 140.161 288.974C139.693 288.797 139.87 288.625 140.505 288.625C141.146 288.568 141.495 288.74 141.26 288.911ZM360.484 288.911C360.307 289.089 359.786 289.146 359.38 288.974C358.917 288.797 359.094 288.625 359.729 288.625C360.37 288.568 360.714 288.74 360.484 288.911ZM365.703 289.495C365.531 289.667 365.005 289.724 364.599 289.552C364.135 289.38 364.312 289.203 364.948 289.203C365.589 289.146 365.937 289.318 365.703 289.495ZM138.708 290.13C138.302 290.25 137.609 290.25 137.26 290.13C136.854 289.958 137.146 289.844 137.953 289.844C138.766 289.844 139.057 289.958 138.708 290.13ZM363.151 290.13C362.745 290.25 362.047 290.25 361.703 290.13C361.297 289.958 361.583 289.844 362.396 289.844C363.208 289.844 363.5 289.958 363.151 290.13ZM142.187 290.714C141.781 290.828 141.089 290.828 140.74 290.714C140.333 290.536 140.625 290.422 141.437 290.422C142.245 290.422 142.536 290.536 142.187 290.714ZM359.672 290.714C359.266 290.828 358.568 290.828 358.224 290.714C357.818 290.536 358.104 290.422 358.917 290.422C359.729 290.422 360.021 290.536 359.672 290.714ZM150.891 291.292C149.844 291.406 148.104 291.406 147.12 291.292C146.073 291.177 146.885 291.057 148.974 291.057C151.062 291.057 151.875 291.177 150.891 291.292ZM353.292 291.292C352.25 291.406 350.51 291.406 349.521 291.292C348.479 291.177 349.292 291.057 351.38 291.057C353.464 291.057 354.276 291.177 353.292 291.292ZM364.719 291.464C364.255 291.755 363.208 291.99 362.396 291.99C361.062 291.927 361.062 291.87 362.687 291.464C365.182 290.828 365.703 290.828 364.719 291.464ZM138.708 291.87C138.302 291.99 137.609 291.99 137.26 291.87C136.854 291.698 137.146 291.583 137.953 291.583C138.766 291.583 139.057 291.698 138.708 291.87ZM141.26 292.396C141.089 292.568 140.562 292.625 140.161 292.453C139.693 292.276 139.87 292.104 140.505 292.104C141.146 292.047 141.495 292.219 141.26 292.396ZM144.74 292.396C144.568 292.568 144.047 292.625 143.641 292.453C143.177 292.276 143.349 292.104 143.984 292.104C144.625 292.047 144.974 292.219 144.74 292.396ZM268.562 306.833C285.146 339.021 310.724 361.177 329.63 359.724C333.865 359.438 336.01 358.74 338.849 356.771L340.531 355.609L340.125 357.349C339.49 359.786 337.109 362.682 334.094 364.599C330.672 366.802 328.182 367.438 323.542 367.438C302.719 367.438 276.276 341.63 260.615 306.021L258.99 302.25L259.979 297.901C260.557 295.469 261.135 293.089 261.255 292.625C261.427 292.161 262.411 293.786 263.573 296.396C264.677 298.948 266.88 303.646 268.562 306.833ZM357.005 292.396C356.828 292.568 356.307 292.625 355.901 292.453C355.437 292.276 355.609 292.104 356.25 292.104C356.885 292.047 357.234 292.219 357.005 292.396ZM360.484 292.396C360.307 292.568 359.786 292.625 359.38 292.453C358.917 292.276 359.094 292.104 359.729 292.104C360.37 292.047 360.714 292.219 360.484 292.396ZM149.146 293.031C148.396 293.146 147.234 293.146 146.536 293.031C145.786 292.917 146.365 292.797 147.812 292.797C149.266 292.797 149.844 292.917 149.146 293.031ZM240.26 297.438L241.302 302.193L238.87 307.703C226.458 335.891 205.87 358.974 187.135 365.526C182.266 367.266 174.896 367.901 171.302 366.917C166.375 365.641 159.995 359.958 159.995 356.943C159.995 356.073 160.401 356.188 163.125 357.641C179.187 366.339 206.276 348.938 225.818 317.271C229.474 311.417 235.911 299.063 237.708 294.479C238.115 293.495 238.578 292.625 238.807 292.625C239.042 292.625 239.677 294.771 240.26 297.438ZM353.87 293.031C353.12 293.146 351.958 293.146 351.26 293.031C350.51 292.917 351.089 292.797 352.536 292.797C353.99 292.797 354.568 292.917 353.87 293.031ZM138.359 293.552C138.187 293.729 137.667 293.786 137.26 293.609C136.797 293.438 136.969 293.266 137.609 293.266C138.245 293.203 138.594 293.38 138.359 293.552ZM246.984 293.901C246.984 294.307 247.568 296.396 248.203 298.542L249.479 302.427L247.854 307.125C246.927 309.677 246 311.766 245.828 311.766C245.594 311.766 244.839 309.563 244.089 306.891L242.812 302.078L244.432 297.615C246 293.609 246.984 292.104 246.984 293.901ZM255.859 297.786L257.484 302.37L256.208 307.068C255.51 309.677 254.698 311.589 254.469 311.359C253.828 310.661 251.047 303.589 251.047 302.599C251.047 301.443 253.599 293.203 253.948 293.203C254.12 293.203 254.99 295.234 255.859 297.786ZM363.385 293.552C363.208 293.729 362.687 293.786 362.281 293.609C361.818 293.438 361.99 293.266 362.63 293.266C363.266 293.203 363.615 293.38 363.385 293.552ZM140.682 294.135C140.505 294.307 139.984 294.365 139.578 294.193C139.115 294.016 139.292 293.844 139.927 293.844C140.562 293.786 140.911 293.958 140.682 294.135ZM151.469 294.479C151.12 295.12 142.708 295.063 142.365 294.422C142.187 294.193 144.219 293.958 146.885 294.016C149.552 294.016 151.641 294.25 151.469 294.479ZM357.99 294.422C357.641 295.063 349.234 295.12 348.885 294.479C348.708 294.25 350.797 294.016 353.464 294.016C356.135 293.958 358.161 294.193 357.99 294.422ZM361.062 294.135C360.891 294.307 360.37 294.365 359.964 294.193C359.5 294.016 359.672 293.844 360.307 293.844C360.948 293.786 361.297 293.958 361.062 294.135ZM159.005 295.349C158.604 295.469 157.906 295.469 157.557 295.349C157.151 295.177 157.443 295.063 158.255 295.063C159.068 295.063 159.354 295.177 159.005 295.349ZM342.854 295.349C342.448 295.469 341.75 295.469 341.401 295.349C340.995 295.177 341.286 295.063 342.099 295.063C342.911 295.063 343.203 295.177 342.854 295.349ZM156.458 295.755C156.339 295.875 155.24 296.104 154.021 296.339C152.453 296.625 151.875 296.568 152.167 296.161C152.339 295.818 153.437 295.526 154.599 295.526C155.76 295.526 156.573 295.641 156.458 295.755ZM343.026 296.974C345.229 297.438 347.724 297.844 348.651 297.844C349.521 297.844 350.219 298.078 350.219 298.427C350.219 298.714 349.641 299.005 348.885 299.005C347.146 299.005 338.677 296.802 337.458 296.047C336.766 295.583 336.88 295.526 337.807 295.818C338.505 295.99 340.823 296.51 343.026 296.974ZM348.187 296.161C348.479 296.568 347.901 296.625 346.333 296.339C343.375 295.818 343.203 295.526 345.755 295.526C346.911 295.526 348.016 295.818 348.187 296.161ZM147.641 296.51C146.479 296.625 144.625 296.625 143.583 296.51C142.594 296.396 143.583 296.281 145.786 296.281C148.047 296.281 148.859 296.396 147.641 296.51ZM161.62 296.453C161.094 296.917 152.974 299.005 151.469 299.005C149.38 299.005 149.901 297.844 152.047 297.786C153.036 297.786 155.354 297.38 157.094 296.974C160.865 296.104 162.021 295.99 161.62 296.453ZM356.422 296.51C355.266 296.625 353.406 296.625 352.365 296.51C351.38 296.396 352.365 296.281 354.568 296.281C356.828 296.281 357.641 296.396 356.422 296.51ZM148.396 298.542C148.396 299.12 146.073 299.063 144.625 298.427C143.755 298.078 144.104 297.964 145.901 298.021C147.292 298.078 148.396 298.307 148.396 298.542ZM355.729 298.427C354.276 299.063 351.958 299.12 351.958 298.542C351.958 298.307 353.062 298.078 354.453 298.021C356.25 297.964 356.599 298.078 355.729 298.427ZM159.703 299.297C157.443 301.094 150.656 302.021 149.844 300.745C149.615 300.396 150.365 300.167 151.698 300.167C152.917 300.167 155.24 299.76 156.802 299.354C160.573 298.307 161.094 298.307 159.703 299.297ZM343.26 299.297C345 299.76 347.432 300.167 348.651 300.167C349.984 300.167 350.74 300.396 350.51 300.745C349.698 302.021 342.911 301.094 340.651 299.297C339.198 298.25 339.375 298.25 343.26 299.297ZM163.766 300.047C163.417 300.281 162.547 301.036 161.734 301.729C160.052 303.125 157.672 303.995 157.672 303.182C157.672 302.833 159.005 301.906 160.687 301.094C163.766 299.583 164.75 299.234 163.766 300.047ZM341.984 302.25C342.74 302.776 343.203 303.297 343.026 303.469C342.448 304.052 340.068 303.005 338.042 301.266L336.01 299.469L338.328 300.453C339.604 300.979 341.286 301.786 341.984 302.25ZM342.677 312.458C342.62 312.865 341.807 312.172 340.766 310.896C339.781 309.62 337.401 306.891 335.49 304.802C333.573 302.719 334.443 303.411 337.344 306.37C340.302 309.328 342.677 312.052 342.677 312.458ZM164.286 305.5C162.427 307.531 160.167 310.083 159.297 311.182C158.427 312.286 157.729 312.865 157.672 312.458C157.672 311.766 166.781 301.906 167.417 301.906C167.589 301.906 166.198 303.526 164.286 305.5ZM161.094 305.792C159.646 307.354 157.906 309.328 157.208 310.255C156.458 311.24 155.932 311.589 155.932 311.068C155.932 309.156 161.5 303.24 163.474 303.063C163.589 303.063 162.547 304.281 161.094 305.792ZM342.505 307.646C343.547 308.979 344.417 310.547 344.417 311.01C344.417 311.589 343.953 311.302 343.141 310.255C342.448 309.328 340.708 307.297 339.255 305.734L336.589 302.891L338.62 303.995C339.719 304.63 341.464 306.255 342.505 307.646ZM242.521 319.885C240.203 324.87 238.464 328.177 234.865 334.615C233.417 337.109 228.255 344.88 226.745 346.734C216.016 360.073 206.797 367.964 196.531 372.776C192.297 374.745 190.036 375.385 185.339 376.141C175.771 377.646 166.432 373.125 162.198 364.885L161.036 362.625L163.417 364.479C170.432 370.047 181.974 370.109 192.932 364.656C209.349 356.536 225.469 338.094 237.302 314.026L242.057 304.458L243.562 309.385L245.016 314.375L242.521 319.885ZM252.089 319.188C250.062 324.641 250.062 324.641 247.854 318.26L246.521 314.432L247.974 310.604C248.786 308.516 249.599 306.37 249.771 305.734C249.943 304.979 250.641 306.141 251.974 309.5L253.948 314.318L252.089 319.188ZM263.109 314.198C277.667 343.49 297.5 363.38 316.698 368.078C318.26 368.427 321.917 368.599 325.104 368.484C331.198 368.25 333.63 367.38 337.516 364.135L339.432 362.51L337.979 365.12C334.792 370.979 329.109 374.979 322.208 376.141C319.016 376.719 317.568 376.661 313.568 375.849C301.562 373.411 289.615 365.526 278.594 352.708C277.026 350.854 275.344 348.938 274.88 348.474C270.651 344.068 255.687 317.62 255.687 314.604C255.687 313.62 258.062 304.802 258.354 304.802C258.411 304.802 260.557 309.036 263.109 314.198ZM162.833 310.026C161.792 311.302 160.865 312.344 160.687 312.344C160.401 312.344 161.385 310.953 163.125 308.979C165.042 306.833 164.807 307.531 162.833 310.026ZM337.516 309.271C338.271 310.198 338.214 310.255 337.344 309.5C336.359 308.75 336.068 308.286 336.531 308.286C336.646 308.286 337.109 308.75 337.516 309.271ZM158.484 316.464C157.672 318.083 156.859 319.302 156.687 319.13C156.396 318.839 159.297 313.505 159.76 313.505C159.875 313.505 159.354 314.839 158.484 316.464ZM342.042 315.417C343.547 317.854 344.594 320.635 343.839 320.172C343.49 320 343.26 319.536 343.26 319.245C343.26 318.953 342.62 317.677 341.807 316.401C340.995 315.125 340.359 313.969 340.359 313.792C340.359 313.099 340.937 313.62 342.042 315.417ZM157.094 314.547C157.094 314.839 156.687 315.531 156.167 316.172C155.703 316.75 155.354 316.984 155.526 316.693C155.646 316.344 155.932 315.651 156.109 315.068C156.516 314.083 157.094 313.734 157.094 314.547ZM344.651 316.401L345.057 317.854L344.187 316.401C343.203 314.781 342.969 313.505 343.781 314.375C344.073 314.724 344.479 315.594 344.651 316.401ZM161.151 315.823C160.807 316.464 160.401 316.984 160.224 316.984C160.109 316.984 160.224 316.464 160.573 315.823C160.922 315.188 161.328 314.661 161.5 314.661C161.62 314.661 161.5 315.188 161.151 315.823ZM258.583 324.521C262.875 333.224 263.745 334.729 268.271 341.573C283.177 364.016 302.026 377.474 318.609 377.531C324.698 377.589 328.469 376.484 332.88 373.411L335.833 371.385L334.792 373.24C332.818 376.547 328.062 380.776 324.177 382.635C320.875 384.198 319.536 384.547 314.781 384.724C308.115 385.01 303.88 384.083 296.979 380.776C284.453 374.807 272.156 363.089 262.354 347.719C259.453 343.141 251.974 329.161 251.396 327.073C251.161 326.323 251.745 323.943 252.901 320.984C253.891 318.318 254.875 316.521 254.99 316.984C255.161 317.448 256.729 320.87 258.583 324.521ZM247.276 320.755C247.854 322.318 248.552 323.885 248.844 324.177C249.771 325.276 249.25 326.786 245.245 334.786C236.141 353 223.906 367.901 211.031 376.427C201.458 382.75 194.328 385.068 185.51 384.724C180.812 384.547 179.479 384.198 176.234 382.693C172 380.604 168.635 377.703 165.911 373.646L163.995 370.917L167.245 373.182C172 376.484 175.536 377.589 181.74 377.531C202.328 377.474 225.526 357.234 241.245 325.625C242.812 322.552 244.318 319.302 244.667 318.375C245.422 316.464 245.943 316.927 247.276 320.755ZM159.005 319.594C158.484 320.693 157.964 321.505 157.792 321.391C157.557 321.099 159.297 317.563 159.703 317.563C159.875 317.563 159.531 318.49 159.005 319.594ZM341.807 319.359C342.333 320.349 342.677 321.276 342.562 321.391C342.391 321.505 341.865 320.693 341.344 319.594C340.125 317.099 340.594 316.87 341.807 319.359ZM343.724 324.234C343.547 324.406 343.203 324.115 343.026 323.536C342.677 322.724 342.74 322.667 343.318 323.188C343.724 323.594 343.896 324.057 343.724 324.234ZM343.26 327.714C343.26 328 342.969 327.885 342.677 327.422C342.391 326.958 342.099 326.26 342.099 325.974C342.099 325.625 342.391 325.797 342.677 326.26C342.969 326.729 343.26 327.365 343.26 327.714ZM158.661 336.818C158.484 337.281 158.312 337.109 158.312 336.469C158.255 335.833 158.427 335.484 158.604 335.714C158.776 335.891 158.833 336.411 158.661 336.818ZM159.24 342.62C159.068 343.083 158.891 342.906 158.891 342.271C158.833 341.63 159.005 341.281 159.182 341.516C159.354 341.688 159.411 342.214 159.24 342.62ZM341.344 343.198C341.172 343.604 341.057 343.313 341.057 342.5C341.057 341.688 341.172 341.401 341.344 341.75C341.464 342.151 341.464 342.849 341.344 343.198ZM158.661 349.578C158.484 349.984 158.37 349.693 158.37 348.88C158.37 348.068 158.484 347.781 158.661 348.125C158.776 348.531 158.776 349.229 158.661 349.578ZM341.927 349.578C341.75 349.984 341.635 349.693 341.635 348.88C341.635 348.068 341.75 347.781 341.927 348.125C342.042 348.531 342.042 349.229 341.927 349.578Z" fill="white"/>
</g>
</svg>
